<svg xmlns="http://www.w3.org/2000/svg" width="170" height="152.505" viewBox="0 0 170 152.505"><defs><style>.a{fill:#4f803b;}.b{fill:#95bb3e;}.c{fill:#ffd32e;}.d{fill:#ef769c;}.e{fill:#9a2880;}.f{fill:#43bcb4;}.g{fill:#6c2563;}.h{fill:#e93d72;}.i{fill:#ef6b35;}.j{fill:#b54b99;}.k{fill:#ec5343;}.l{fill:#f8b02d;}.m{fill:#df2a2c;}.n{fill:#f29822;}.o{fill:#8c9739;}.p{fill:#03b0db;}.q{fill:#25215e;}.r{fill:#e90089;}.s{fill:#ffca66;}.t{fill:#fff;}.u{fill:#80b5cd;}.v{fill:#00a7aa;}.w{fill:none;stroke:#f07a80;stroke-miterlimit:10;}.x{fill:#fab74d;}</style></defs><g transform="translate(116.248 104.855)"><path class="a" d="M551.008,387.836s2.753-9.112,12.354-11.716c10.336-2.8,12.971-5.647,15.343-7.839A54.949,54.949,0,0,1,570.2,372.2c-2.534.925-6.255,1.725-8.419,2.476C553.9,377.418,551.533,382.2,551.008,387.836Z" transform="translate(-551.008 -355.201)"/><g transform="translate(4.65 22.647)"><path class="a" d="M553,371.928c.745.049,4.332.626,4.268.641a3.332,3.332,0,0,1,2.033-1.148,1.9,1.9,0,0,1,1.883.818,13.487,13.487,0,0,1,2.012-.183,2.55,2.55,0,0,1,1.544,1.038c2.616-.47,5.864,2.482,8.59,1.3-.467,1.258-4.042,1.2-5.214,1.072a36.029,36.029,0,0,1-4.49-.684c-1.661-.366-3.077-1.294-4.884-1.514-.848-.1-1.261-.174-2.005-.226a34.505,34.505,0,0,1-4.118-.644S552.259,371.874,553,371.928Z" transform="translate(-552.531 -371.415)"/><path class="b" d="M570.579,373.209c-.784,2.03-2.958,2.048-4.622,2.176a3.894,3.894,0,0,1-1.859-.073c-.821-.226-1.032-.354-1.487-.253a4.067,4.067,0,0,1-2.06.659,4.306,4.306,0,0,1-1.078-.128,12.461,12.461,0,0,0-1.548-.626c-.379-.049-.864.281-1.383.159a3.047,3.047,0,0,1-2.625-2.7c0-.049.082-.406.165-.436,2.1-.214,5.989,1.542,7.363,1.832C569.749,375.575,570.579,373.209,570.579,373.209Z" transform="translate(-549.685 -370.275)"/></g><g transform="translate(4.519 4.509)"><path class="a" d="M553.162,384.788c.458-.678,2.39-4.164,2.332-4.118a3.653,3.653,0,0,0,2.372-.977,2.082,2.082,0,0,0,.565-2.18c.137-.269,1.273-1.062,1.52-1.615a2.785,2.785,0,0,0,.153-2.033c2.174-1.941,1.826-6.743,4.689-8.3-1.4-.449-3.77,2.68-4.454,3.773a39.662,39.662,0,0,0-2.448,4.341c-.812,1.682-.968,3.532-2,5.238-.485.806-.7,1.209-1.16,1.887a38.166,38.166,0,0,0-2.237,3.99S552.7,385.466,553.162,384.788Z" transform="translate(-552.488 -365.368)"/><path class="b" d="M564.354,365.625c-2.286-.7-3.77,1.166-5.009,2.515a4.262,4.262,0,0,0-1.194,1.655c-.363.861-.391,1.13-.788,1.453a4.431,4.431,0,0,0-1.963,1.334,4.529,4.529,0,0,0-.619,1.013,14.019,14.019,0,0,1-.51,1.764c-.211.357-.824.553-1.071,1.084a3.341,3.341,0,0,0,.55,4.094c.039.037.409.2.488.156,1.609-1.673,2.726-6.215,3.407-7.6C561.75,364.74,564.354,365.625,564.354,365.625Z" transform="translate(-551.943 -365.473)"/></g><g transform="translate(14.887)"><path class="c" d="M560.939,373.007a30.375,30.375,0,0,0,5.617-1.688c.977-.485,4.579-4.063,3.853-5-.9-1.163-5,1.191-5.711,1.737a20.162,20.162,0,0,0-4.192,4.313A1.054,1.054,0,0,1,560.939,373.007Z" transform="translate(-546.399 -359.89)"/><path class="d" d="M564.552,368.374a30.454,30.454,0,0,0-4.625,3.608c-.736.806-2.8,5.443-1.783,6.057,1.258.76,4.234-2.921,4.7-3.685a20.2,20.2,0,0,0,2.344-5.537A1.067,1.067,0,0,1,564.552,368.374Z" transform="translate(-551.813 -355.01)"/><path class="e" d="M560.787,368.546c-.864,2.222-.894,7.033-.516,9.011.315,1.63,2.21,3.9,2.882,3.807.989-.14,1.093-4.176,1.059-4.8-.095-1.795-2.341-6.459-2.924-8.068Z" transform="translate(-547.355 -354.763)"/><path class="f" d="M560.472,368.756c.742,2.259,3.685,5.989,5.186,7.271,1.233,1.056,4.017,1.6,4.451,1.1.638-.736-1.774-3.913-2.186-4.374-1.179-1.319-5.7-3.489-7.119-4.356Z" transform="translate(-546.469 -354.964)"/><path class="g" d="M560.606,369.087c1.889,1.444,6.429,2.848,8.392,3.056,1.615.171,4.219-.962,4.3-1.618.107-.968-3.681-2.219-4.283-2.366-1.719-.421-6.673.354-8.334.443Z" transform="translate(-546.193 -355.707)"/><path class="h" d="M560.8,376.176c1.829-1.52,4.21-5.632,4.851-7.5.528-1.535.009-4.329-.614-4.545-.922-.324-2.989,3.089-3.266,3.645-.794,1.578-1.145,6.581-1.429,8.221Z" transform="translate(-546.725 -363.758)"/><path class="i" d="M562.972,376.393c.693-2.274.424-7.018-.067-8.929-.4-1.575-2.372-3.62-3.013-3.459-.946.235-.794,4.222-.723,4.838.2,1.755,2.662,6.127,3.324,7.653Z" transform="translate(-549.255 -363.996)"/><path class="j" d="M566.1,374.468c-.489-2.326-3.013-6.356-4.365-7.793-1.111-1.181-3.822-2.027-4.307-1.578-.714.665,1.34,4.084,1.7,4.591,1.026,1.438,5.287,4.084,6.6,5.1Z" transform="translate(-553.035 -361.989)"/><path class="k" d="M568.609,369.162c-2.134-1.053-6.859-1.551-8.825-1.374-1.615.144-3.953,1.755-3.9,2.415.079.971,4.039,1.465,4.658,1.5,1.764.079,6.478-1.642,8.089-2.048Z" transform="translate(-555.885 -356.283)"/><path class="l" d="M561.071,369.455a.708.708,0,1,0-.15-1.4C559.764,368.121,559.761,369.662,561.071,369.455Z" transform="translate(-547.293 -355.678)"/></g></g><g transform="translate(26.75 3.065)"><path class="a" d="M522.509,365.6s-.775-10.12,7.763-16.408c9.195-6.771,10.718-10.614,12.229-13.709a58.325,58.325,0,0,1-6.945,7.18c-2.164,1.9-5.55,4.127-7.412,5.708C521.371,354.125,520.864,359.8,522.509,365.6Z" transform="translate(-521.626 -320.733)"/><g transform="translate(0 10.532)"><path class="a" d="M523.026,357.722c.2-.852.769-5.061.73-4.994a3.891,3.891,0,0,0,1.978-1.886,2.214,2.214,0,0,0-.275-2.384c.031-.321.855-1.548.888-2.192a2.968,2.968,0,0,0-.635-2.079c1.414-2.766-.781-7.406,1.462-10.055-1.566.095-2.711,4.118-2.973,5.47a43.032,43.032,0,0,0-.76,5.257c-.156,1.984.4,3.886.034,5.98-.174.986-.235,1.471-.43,2.32a39.972,39.972,0,0,0-.681,4.829S522.831,358.57,523.026,357.722Z" transform="translate(-520.336 -334.039)"/><path class="b" d="M528.617,334.1c-2.54.189-3.3,2.616-4.008,4.435a4.539,4.539,0,0,0-.549,2.1c-.028,1,.046,1.273-.223,1.749a4.735,4.735,0,0,0-1.438,2.082,4.852,4.852,0,0,0-.223,1.249,15.473,15.473,0,0,1,.174,1.948c-.073.436-.608.87-.647,1.493a3.552,3.552,0,0,0,2.122,3.853c.055.024.485.046.546-.031.952-2.28.315-7.229.458-8.865C525.687,334.226,528.617,334.1,528.617,334.1Z" transform="translate(-521.689 -334.101)"/></g><g transform="translate(8.43)"><path class="c" d="M529.552,342.278a32.2,32.2,0,0,0,4.933-3.846c.782-.858,2.985-5.8,1.9-6.456-1.34-.809-4.512,3.114-5.006,3.929a21.514,21.514,0,0,0-2.5,5.9A1.131,1.131,0,0,1,529.552,342.278Z" transform="translate(-515.372 -328.157)"/><path class="d" d="M530.931,335.585a32.637,32.637,0,0,0-3.208,5.369c-.418,1.084-.681,6.49.565,6.707,1.545.269,3.083-4.533,3.248-5.473a21.437,21.437,0,0,0,.2-6.407A1.14,1.14,0,0,1,530.931,335.585Z" transform="translate(-518.446 -320.523)"/><path class="e" d="M528.819,335.8c0,2.54,1.823,7.335,2.964,9.155.94,1.5,3.7,3.025,4.329,2.671.931-.519-.519-4.57-.8-5.18-.787-1.746-4.82-5.519-6.02-6.89Z" transform="translate(-515.485 -320.587)"/><path class="f" d="M529.007,335.89c1.606,1.963,5.971,4.533,7.955,5.229,1.633.574,4.613.04,4.851-.623.351-.98-3.272-3.205-3.862-3.507-1.679-.858-7.009-1.267-8.752-1.584Z" transform="translate(-515.099 -320.893)"/><path class="g" d="M529.166,338.233c2.433.705,7.488.348,9.518-.2,1.67-.452,3.825-2.58,3.645-3.26-.266-1-4.515-.788-5.168-.7-1.871.244-6.5,2.924-8.111,3.651Z" transform="translate(-515.011 -323.8)"/><path class="h" d="M530.394,344.254c1.233-2.213,2.018-7.219,1.932-9.323-.067-1.728-1.658-4.3-2.363-4.28-1.041.033-1.777,4.225-1.841,4.881-.18,1.877,1.4,6.984,1.749,8.721Z" transform="translate(-516.944 -330.651)"/><path class="i" d="M534.167,342.678c-.189-2.528-2.286-7.14-3.511-8.85-1.007-1.407-3.752-2.683-4.328-2.274-.849.6.839,4.5,1.148,5.086.879,1.667,5.009,5.064,6.255,6.325Z" transform="translate(-521.084 -328.956)"/><path class="j" d="M536.784,339.654c-1.383-2.125-5.443-5.153-7.342-6.063-1.56-.748-4.579-.54-4.887.092-.455.934,2.906,3.544,3.456,3.907,1.575,1.035,6.832,2.021,8.529,2.528Z" transform="translate(-524.323 -325.596)"/><path class="k" d="M536.734,335.444c-2.527-.22-7.418,1.105-9.3,2.039-1.551.766-3.254,3.269-2.946,3.9.455.934,4.582-.1,5.208-.311,1.786-.6,5.806-4.127,7.25-5.153Z" transform="translate(-524.451 -320.862)"/><path class="l" d="M529.8,336.551a.755.755,0,1,0-.69-1.337C527.983,335.729,528.576,337.262,529.8,336.551Z" transform="translate(-516.121 -321.48)"/></g></g><g transform="translate(111.518 55.362)"><g transform="translate(0 5.15)"><g transform="translate(0 3.282)"><path class="a" d="M592.621,350.545s-1.307,9.726-8.6,21.955c-4,6.71-11.688,13.526-19.61,20.566C542.045,412.928,551.4,422,551.4,422a5.831,5.831,0,0,1-.849-3.779c.024-.223.827-.214.864-.458.491-3.315,2.18-8.376,7.253-14.454,9.195-11.014,22.361-20.5,27.974-29.723S592.621,350.545,592.621,350.545Z" transform="translate(-549.458 -350.545)"/></g><g transform="translate(20.073)"><path class="m" d="M563.22,367.915a26.119,26.119,0,0,0,1.447-6.27c.086-1.37-1.068-6.194-6.52-9.234a1.836,1.836,0,0,0-1.987.067c-.326.305.061,1.362.327,1.822.818,1.426,2.857,3.813,3.6,11.356.8,8.092-1,12.851-.888,13.709.25.479.583.452.858.235.366-.293,5.309-6.31,5.626-7.516.7-1.307.638-6.133-2-4.524Z" transform="translate(-556.034 -343.979)"/><path class="n" d="M568.905,363.579a25.1,25.1,0,0,1,5.95-1.487c1.3-.107,5.916.913,8.9,6.05a1.749,1.749,0,0,1-.027,1.9c-.287.317-1.3-.034-1.74-.278-1.374-.757-3.682-2.659-10.88-3.236-7.72-.62-12.222,1.166-13.041,1.078-.461-.229-.44-.547-.238-.812.272-.354,5.919-5.162,7.064-5.486,1.23-.69,5.831-.714,4.341,1.832Z" transform="translate(-552.626 -325.995)"/><path class="j" d="M569.109,360.326a20.81,20.81,0,0,1,4.573-2.189c1.038-.3,4.945-.241,8.218,3.428a1.444,1.444,0,0,1,.29,1.539c-.18.305-1.059.189-1.456.064-1.239-.385-3.425-1.542-9.35-.818-6.362.779-9.71,2.97-10.391,3.037-.412-.11-.446-.372-.326-.62.162-.333,3.941-5.165,4.814-5.617.882-.763,4.606-1.545,3.822.763Z" transform="translate(-546.651 -331.909)"/><path class="o" d="M569.789,357.112a17.2,17.2,0,0,1,3.8-1.789c.861-.244,4.1-.171,6.792,2.888a1.205,1.205,0,0,1,.235,1.279c-.153.25-.879.149-1.209.043-1.026-.327-2.83-1.3-7.748-.73a30.307,30.307,0,0,0-8.63,2.457c-.342-.092-.366-.308-.269-.516.134-.275,3.3-4.258,4.023-4.628.736-.629,3.825-1.255,3.163.653Z" transform="translate(-542.319 -337.634)"/><path class="f" d="M568.066,355.485a14.51,14.51,0,0,1,2.68-2.3A6.41,6.41,0,0,1,576.9,354a1.006,1.006,0,0,1,.476.983c-.067.238-.678.317-.971.308-.9-.037-2.582-.418-6.441,1.148a25.484,25.484,0,0,0-6.441,3.932c-.3,0-.366-.168-.333-.357a27.48,27.48,0,0,1,2.219-4.655c.455-.675,2.818-1.877,2.711-.18Z" transform="translate(-541.359 -342.762)"/><path class="p" d="M567,362.328a24.35,24.35,0,0,0-.095-5.956c-.229-1.248-2.345-5.327-7.916-6.841a1.7,1.7,0,0,0-1.771.5c-.226.348.357,1.209.7,1.566,1.056,1.1,3.419,2.787,5.766,9.4,2.518,7.091,1.969,11.768,2.256,12.513.333.375.626.275.824.018.266-.342,3.364-6.85,3.379-8,.339-1.331-.794-5.654-2.809-3.621Z" transform="translate(-553.7 -349.47)"/></g></g><g transform="translate(35.983)"><path class="h" d="M566.759,357.536c-.946.43-4.356.888-5.415-.052-.092-.479,2.286-2.332,4.31-2.814-1.236-.217-4.219-2.125-4.408-3.434,3.318-.821,4.839.772,6.328,1.71-.534-1.307-1.667-3.15-1.093-5.162,1.56-.033,3.083,2.528,3.7,4.335,1.361-3.117,3.733-4.5,4.216-3.944.513.5-.724,4.219-2.857,5.766,2.366-.711,5.07-1.145,6.682.284-.77,1.651-5.08,1.746-6.517,1.56,1.093,1.068,2.741,4.475,1.9,5.312-1.56.357-3.572-1.969-3.758-3.9-.674,2.781-2.671,4.973-3.483,4.884C565.538,360.659,566.243,359.1,566.759,357.536Z" transform="translate(-561.246 -347.783)"/><path class="c" d="M565.712,351.091c.5-1.377-1.3-1.978-1.95-.684C563,351.906,565.2,352.514,565.712,351.091Z" transform="translate(-556.405 -343.865)"/></g></g><g transform="translate(0 68.607)"><g transform="translate(0 8.173)"><g transform="translate(15.981)"><path class="a" d="M532.925,410.174a3.667,3.667,0,0,1,2.561-.339,53,53,0,0,0-5.089-12.983c-4.176-7.928-8.23-15.611-9.4-22.113-2.137-11.853-.275-19.94-.275-19.94s-3.825,11.044-2.128,20.016,9.3,20.4,13.294,31.854C532.324,407.909,532.66,409.075,532.925,410.174Z" transform="translate(-518.162 -354.799)"/></g><g transform="translate(0 2.421)"><path class="m" d="M523.265,368.95a22.364,22.364,0,0,1,.717-5.394c.342-1.108,2.693-4.585,7.909-5.367a1.553,1.553,0,0,1,1.554.644c.168.339-.452,1.059-.8,1.346-1.072.885-3.4,2.167-6.23,7.916-3.037,6.169-3.037,10.467-3.376,11.118-.342.305-.6.18-.748-.073-.2-.339-2.326-6.572-2.216-7.622-.168-1.242,1.319-5.043,2.934-2.982Z" transform="translate(-498.281 -350.289)"/><path class="n" d="M526.649,366.587a21.229,21.229,0,0,0-4.267-2.949c-1-.47-4.954-1.038-8.85,2.14a1.479,1.479,0,0,0-.54,1.508c.134.336,1.038.36,1.462.3,1.313-.192,3.7-1.007,9.573.678,6.294,1.807,9.326,4.561,10,4.735.434-.043.51-.3.43-.571-.11-.363-3.147-5.849-3.956-6.447-.769-.913-4.4-2.3-3.984.159Z" transform="translate(-512.927 -339.83)"/><path class="j" d="M524.241,364.01a17.669,17.669,0,0,0-2.967-3.1c-.733-.546-3.846-1.661-7.528.269a1.222,1.222,0,0,0-.687,1.133c.052.293.781.461,1.135.482,1.093.064,3.169-.2,7.644,2.137a30.8,30.8,0,0,1,7.317,5.495c.36.037.464-.159.446-.394-.03-.311-1.581-5.26-2.137-5.876-.473-.867-3.187-2.595-3.254-.534Z" transform="translate(-512.68 -346.348)"/><path class="o" d="M522.533,360.732a14.628,14.628,0,0,0-2.479-2.552,6.453,6.453,0,0,0-6.237.266,1.016,1.016,0,0,0-.565.943c.046.244.65.379.943.394.91.046,2.625-.186,6.35,1.728a25.454,25.454,0,0,1,6.1,4.515c.3.027.385-.134.366-.327a27.571,27.571,0,0,0-1.8-4.863c-.4-.717-2.656-2.131-2.7-.424Z" transform="translate(-512.278 -351.635)"/><path class="f" d="M521.995,359.569a12.249,12.249,0,0,0-1.435-2.622,5.413,5.413,0,0,0-5.113-1.188c-.2.043-.632.247-.668.635-.018.208.443.455.674.531a10.115,10.115,0,0,1,4.759,2.827,21.545,21.545,0,0,1,3.926,5.031c.235.089.342-.024.369-.186a23.266,23.266,0,0,0-.369-4.344c-.162-.669-1.673-2.323-2.094-.949Z" transform="translate(-509.127 -355.592)"/><path class="p" d="M522.988,363.483a20.706,20.706,0,0,1,1.85-4.689c.553-.919,3.44-3.516,8.3-3.059.336.034,1.111.287,1.252.925.076.345-.644.852-1.02,1.032-1.16.556-3.535,1.191-7.36,5.724-4.106,4.866-5.064,8.727-5.513,9.234-.375.2-.574.031-.656-.229-.107-.351-.623-6.426-.293-7.345.128-1.154,2.311-4.237,3.3-2.027Z" transform="translate(-499.552 -355.408)"/></g></g><g transform="translate(11.384)"><path class="h" d="M524.74,361.836c.623.623,3.184,2,4.3,1.572.217-.354-1.114-2.525-2.573-3.511,1.044.2,3.974-.424,4.512-1.407-2.381-1.636-4.06-.83-5.519-.528.812-.876,2.259-2,2.4-3.761-1.221-.492-3.19,1.081-4.216,2.329-.15-2.872-1.615-4.671-2.161-4.378-.555.241-.684,3.553.543,5.415-1.661-1.267-3.672-2.415-5.373-1.764.116,1.535,3.5,2.894,4.695,3.175-1.184.522-3.5,2.726-3.089,3.639,1.126.745,3.41-.5,4.136-1.969-.3,2.4.632,4.732,1.3,4.9C524.776,364.672,524.684,363.225,524.74,361.836Z" transform="translate(-516.656 -352.122)"/><path class="c" d="M518.567,354.886c.016-1.239,1.615-1.181,1.749.04C520.469,356.336,518.549,356.165,518.567,354.886Z" transform="translate(-512.733 -348.301)"/></g></g><g transform="translate(24.854 4.435)"><path class="q" d="M554.008,390.629h.125a2.517,2.517,0,0,1,1.023.153c.455.25.534,1.789-.052,3.4a26.331,26.331,0,0,1-3.175,5.956l-.146.159-.183.189c-.1.1-.2.208-.3.305l-.159.162c-.119.116-.235.235-.375.366-.718.7-1.481,1.389-2.278,2.067-1.7,1.459-3.581,2.9-5.358,4.237l-1.028.772q-.966.728-1.954,1.474c-.513.391-1.026.785-1.548,1.191s-1.047.83-1.563,1.251a55.03,55.03,0,0,0-5.88,5.479,36.281,36.281,0,0,0-2.5,3.047l-.131.177c-.061.085-.122.171-.168.238l-.241.345c-.076.107-.15.217-.223.327l-.159.241c-.067.1-.134.2-.2.308l-.119.186c-.131.211-.265.421-.375.617l-.064.11-.174.293-.229.412a25.489,25.489,0,0,0-1.56,3.4c-.086.214-.159.433-.232.65l-.07.207c-.116.339-.211.659-.281.91-.171.614-.308,1.212-.409,1.774a16.1,16.1,0,0,0-.263,3.575,12.857,12.857,0,0,0,.6,3.456,11.233,11.233,0,0,0,.644,1.575,9.627,9.627,0,0,0,.9,1.465,10.006,10.006,0,0,0,1.072,1.215l.079.076a11.488,11.488,0,0,0-1.132,1.328,9.2,9.2,0,0,0-1.887,6.429l0,.049a9.361,9.361,0,0,0,.256,1.38,11.123,11.123,0,0,0-2.219,3.05,9.265,9.265,0,0,0-.958,5.058,8.524,8.524,0,0,0,5.6,7.128,9.869,9.869,0,0,0,3.645.662c.406,0,.824-.021,1.248-.064a17.2,17.2,0,0,0,5.348-1.514c.623-.281,1.23-.586,1.816-.913a6.428,6.428,0,0,0,2.17.934,6.511,6.511,0,0,0,1.377.15,6.4,6.4,0,0,0,3.755-1.23,52,52,0,0,0,16.619,9.506c8.416,2.915,20.251,4.588,32.468,4.588,13.7,0,25.847-2.009,34.2-5.66a2.571,2.571,0,0,0-.574-4.887,35.85,35.85,0,0,1-19.964-10.257l2.366-.6a6.349,6.349,0,0,0,4.564-7.738l-.006-.061a9.181,9.181,0,0,0-.6-2.329,6.356,6.356,0,0,0,1.566-4.832,6.8,6.8,0,0,0-.155-.925,9.6,9.6,0,0,0,2.4-2.7l.031-.046c1-1.444,2.323-3.437,3.794-6.053l.895-1.645c.089-.162.177-.327.247-.473l.647-1.276c.07-.137.141-.278.208-.418l.705-1.5c.061-.128.119-.259.165-.366l.586-1.352c.037-.089.076-.174.119-.284l.562-1.417c.043-.107.086-.214.122-.324l.241-.668a44.258,44.258,0,0,0,1.771-6.252l.024-.113c.021-.113.046-.223.07-.357l.113-.659c.03-.186.061-.375.091-.562l.012-.076.147-1.133.018-.162-2.561-.226,2.564.2.079-.9c.006-.067.012-.131.018-.2l.024-.51c.009-.2.022-.4.027-.6l0-.088.006-.958v-.1l-.031-.794a20.773,20.773,0,0,0-.54-3.865c0-.018-.18-.678-.18-.678-.024-.089-.049-.174-.076-.26l-.165-.516c-.039-.113-.082-.226-.125-.342l-.055-.143a12.961,12.961,0,0,0-.891-1.9c-.061-.107-.128-.214-.2-.32l-.1-.168c-.086-.131-.174-.259-.262-.385l-.058-.083c-.21-.29-.418-.553-.629-.8a9.46,9.46,0,0,0-1.715-1.59l-.107-.076-.131-.089-1.392,2.161,1.365-2.18-.092-.058-.186-.113-.156-.092-.3-.156c-.046-.025-.275-.131-.275-.131l-.125-.052-.134-.055c-.125-.049-.25-.095-.348-.125l-.043-.015c-.083-.027-.165-.052-.247-.076l-.232-.061c-.091-.024-.183-.046-.25-.061l-.156-.03c-.1-.021-.208-.043-.308-.058l-.064-.009c-.162-.024-.321-.046-.482-.061l-.241-.024-.207-.009-.269-.012-.116,0h-.1s-.357,0-.382,0l-.305.015c-.152.006-.308.015-.458.034l-.217.021c-.095.009-.186.021-.275.033l-.351.052c-.082.012-.168.027-.268.046l-.455.092-.174.04s-.464.11-.489.119l-.385.107c-.5.144-1,.311-1.5.507,1.252-1.612,2.43-3.26,3.5-4.869l2.9-4.793c.577-1.062,1.065-2.064,1.453-2.973.577-1.3,1.63-4.469-.681-6.545l-.009-.009c.137-.192.269-.378.406-.568l3.19-4.527c.717-1.041,1.426-2.079,2.112-3.108.562-.84,1.3-1.957,2.018-3.141.776-1.27,1.416-2.433,1.966-3.553a27.7,27.7,0,0,0,1.633-4.094,21.922,21.922,0,0,0,.571-2.286l.049-.256c.012-.079.027-.159.04-.238l.055-.354.043-.3c.024-.171.043-.342.061-.513l.04-.394c.009-.089.012-.18.018-.269l.024-.378c.006-.119.012-.235.012-.354,0,0,.012-.568.012-.592,0-.131,0-.263-.006-.394l-.006-.293-.009-.192-.034-.565-.006-.092s-.07-.714-.073-.745l-.088-.65-.016-.092-.094-.55a21.655,21.655,0,0,0-.556-2.274q-.334-1.071-.787-2.146-.43-.994-.986-2.006c-.342-.607-.729-1.227-1.151-1.838l-.015-.028c-.421-.592-.858-1.157-1.3-1.679-.079-.091-.161-.186-.244-.278,0,0-.293-.327-.311-.345l-.269-.284c-.079-.086-.162-.171-.244-.256l-.351-.342c-.107-.107-.22-.211-.333-.314l-.327-.3-.125-.11-1.661,1.963,1.633-1.984-.351-.3-.147-.122-.25-.2c-.226-.183-.448-.345-.644-.488l-.122-.088c-.076-.058-.156-.116-.235-.168l-.308-.211c-.125-.082-.25-.168-.375-.244l-.33-.2c-.083-.052-.165-.1-.247-.15l-.211-.122c-.241-.143-.473-.266-.678-.373l-.165-.088-.168-.085-.452-.223c-.107-.049-.211-.1-.29-.134l-.183-.079c-.217-.1-.431-.192-.647-.278a21.847,21.847,0,0,0-3.336-1.059,23.222,23.222,0,0,0-3.175-.5c-.684-.061-1.38-.095-2.067-.095-.36,0-.726.009-1.09.027a28.53,28.53,0,0,0-6.362-.8c-.189,0-.382,0-.571,0-1.032,0-2.073.034-3.1.1a37.844,37.844,0,0,0-4.89-1.038,30.869,30.869,0,0,0-4.249-.305c-.8,0-1.6.034-2.384.1l-.433.04-.315.037-.629.079-.665.107c-.083.012-.165.024-.247.043l-.382.073c-.247.043-.491.1-.733.153,0,0-.843.192-.864.2l-1.014.266c-.125.031-.25.067-.376.1l-.943.275c-.024.009-.98.317-.98.317-.14.046-.278.092-.391.131l-.8.284c-.1.034-.2.073-.287.1l-.934.36c-.021.006-.577.235-.577.235-1.187.488-2.357,1.026-3.474,1.59-1.178.6-2.308,1.239-3.349,1.89l-.687.443-.348.235c-.2.134-.4.269-.568.394l-.726.513-.705.51c-.812.592-1.679,1.239-2.726,2.036l-2.531,1.926c-.723.546-1.563,1.178-2.369,1.752-.7.5-1.343.937-1.963,1.337l-1.242.253c-5.345,1.081-10.87,2.2-15.861,4.954a28.69,28.69,0,0,0-8.621,7.333c-2.119,2.7-4.6,6.957-4.393,11.954a11.958,11.958,0,0,0,5.95,10.031c-4.68,7.128-6.166,22.324-4.039,22.916C533.363,404.192,539.746,392.607,554.008,390.629Zm-14.357-19.787a7.093,7.093,0,0,1,3.822-4.112,17.443,17.443,0,0,1,3.807-1.331q-3.412,4.144-6.759,8.935A3.608,3.608,0,0,1,539.651,370.842Z" transform="translate(-521.068 -331.1)"/><path class="r" d="M554.248,415.9c15.9,5.782,44.645,5.657,60-1.7-26.524-4.832-28.615-31.573-35.075-37.95-8.334-8.227-16.481-17.95-28.118-17.757-13.771.223-27.239,11.4-24.213,25.923A43.154,43.154,0,0,0,554.248,415.9Z" transform="translate(-510.093 -274.874)"/><g transform="translate(2.845 2.928)"><path class="r" d="M612.326,382.133c.528-1.178.919-2.744-.04-3.605a12.849,12.849,0,0,0-1.606-.864c-1.929-1.288-.687-4.271.665-6.157,5.077-7.085,9.726-15.694,7.571-24.14-2.348-9.2-12.4-14.787-21.893-14.9s-17.815,2.579-26.833,8.285c-7.909,5.006-21.49,10.883-38.622,37.212-4.655,7.152-8.984,22.773-4.8,16.5,2.812-4.219,14.4-8.969,19.47-8.856a4.812,4.812,0,0,1,2.195.464c2.122,1.157,1.96,4.264,1.136,6.539-2.64,7.277-8.73,12.644-13.432,18.795a55.963,55.963,0,0,0-8.41,15.66c-1.914,5.528-2.732,12.272,1.087,16.7,2.189,2.54,5.5,3.8,8.752,4.628,3.321.849,7.021,1.3,10.025-.345-5.095.821-10.3-2.708-12.207-7.5s14.7,5.693,17.5,1.355-8.41-23.63-3.764-25.883c4.475-2.17,9.341-3.611,13.426-6.447,3.858-2.674,13.648,17.617,18,15.858,7.47-3.013,5.757-16.472,12.452-19.952C599.789,401.954,609.347,389.173,612.326,382.133Z" transform="translate(-515.688 -331.222)"/><path class="q" d="M540.864,358.666c-.852.1-1.56-.632-2.018-1.352-1.874-2.94-2.183-6.6-2.131-10.083.012-.684.143-1.526.794-1.743.635-.214,1.261.372,1.551.977a4.914,4.914,0,0,0,.946,1.752" transform="translate(-491.807 -304.586)"/><path class="s" d="M547.672,355.55l-.012.067C547.675,355.642,547.681,355.62,547.672,355.55Z" transform="translate(-469.331 -283.841)"/><path class="s" d="M599.264,385.017c-2.595-1.068-5.464-.592-10.043,2.659a12.387,12.387,0,0,1-7.088,2.213c-1.682.082-3.358-3.773-3.88-8.23l-.128.171v-.018a38.675,38.675,0,0,0,5.156-10.177l-.027.33c.849.1,1.557-.632,2.018-1.352,1.874-2.94,2.182-6.6,2.128-10.083-.009-.684-.144-1.526-.791-1.743s-1.264.372-1.551.977a4.916,4.916,0,0,1-.946,1.752l-.076.946c-.1-7.152-1.313-15.535-3.572-18.441-.861-1.1-8.572-5.989-14.979-4.9-15.874,2.714-17.022,8.264-16.979,9.714.079,2.573.034,5.174.012,7.677-.241.372-.192,1.877.006,3.88a27.8,27.8,0,0,0,1.255,9.036c.5,3.065.934,5.461.934,5.461,3.309,5.843,5.974,7.308,7.815,9.478-.443,4.634,1.831,8.993-7.931,11.084-3.782.812-7.457,1.914-11.194,2.912s-4.631,1.129-6.505,5.577c-1.828,4.338-.51,16.78,4.42,18.914,6.7,2.9,9.836-5.012,16.2-4.39,4.21.412,7.4-6.557,11.325-4.976,2.558,1.032,5.22,2.509,6.246,5.07.5-5.73,5.547-10.159,10.962-12.107s7.531,14.369,7.344,8.621c-.088-2.8,3.584,5.141,11.365-8.346C601.7,405.1,608.437,388.79,599.264,385.017Z" transform="translate(-501.248 -317.884)"/><path class="q" d="M547.792,349.99c-.055-1.664-.824-2.238-1.294-3.837a.323.323,0,0,0-.11-.192.316.316,0,0,0-.22-.027c-1.386.15-2.537.067-2.989,1.575a14.988,14.988,0,0,0-.391,2.7c-.061.556.22.351.18,1.093C542.951,351.642,544.733,340.643,547.792,349.99Z" transform="translate(-479.347 -303.594)"/><g transform="translate(65.315 53.264)"><path class="q" d="M560.236,349.509c.125.04-.144,1.432-.882,3.6-.095.269-.2.552-.305.845l-.174.446-.089.232-.1.232c-.256.623-.559,1.282-.91,1.963a18.659,18.659,0,0,1-1.233,2.073,13.219,13.219,0,0,1-1.7,2,11.682,11.682,0,0,1-1.02.864c-.348.266-.7.5-1.038.733l-.5.336-.238.168-.244.174c-.33.229-.659.446-.983.647a15.31,15.31,0,0,1-3.7,1.719c-.14.043-.281.076-.415.11l-.2.046-.1.024-.1.018-.192.037-.189.027-.092.012-.091.012-.18.018a5.134,5.134,0,0,1-1.206-.024,3.19,3.19,0,0,1-.736-.192c-.159-.076-.232-.131-.223-.165s.1-.046.268-.04.406.015.712,0a6.833,6.833,0,0,0,1.1-.147l.162-.036.083-.018.082-.021.171-.046.174-.052.089-.024.091-.031.183-.058c.122-.046.25-.089.375-.137a17.462,17.462,0,0,0,3.422-1.825c.305-.2.614-.421.922-.65l.232-.174c.083-.058.168-.122.25-.18s.168-.122.25-.18l.25-.174c.336-.232.665-.467.989-.714a12.035,12.035,0,0,0,.931-.8,13.325,13.325,0,0,0,1.584-1.838,20.614,20.614,0,0,0,1.224-1.938q.54-.966.965-1.865l.107-.22.1-.217.2-.427.36-.806C559.577,350.776,560.09,349.463,560.236,349.509Z" transform="translate(-543.397 -349.508)"/></g><path class="q" d="M549.743,371.146c1.212.748-6.694-6.2-7.677-11.521a6.639,6.639,0,0,0,2.775.632,37.657,37.657,0,0,1-7.168-13.877c-.58-.965-.006,4.084.369,5.666l1.758,7.876A25.017,25.017,0,0,0,549.743,371.146Z" transform="translate(-490.337 -302.914)"/><g transform="translate(81.855 42.178)"><path class="q" d="M548.815,354.719a13.106,13.106,0,0,0,.745-2.631c.021-.177.055-.351.08-.528s.034-.238.049-.366c.043-.33.082-.662.119-1,.131-1.221.226-2.448.339-3.675-.067-.412-.156-.647-.253-.647-.144,0-.272.494-.4,1.291q-.023.147-.046.311l-.049.339c-.031.232-.067.483-.1.745C549.233,349.084,548.977,353.254,548.815,354.719Z" transform="translate(-548.815 -345.876)"/></g><path class="q" d="M545.008,345.588l-.437,2.073s7.269-3.324,9-3.611,3.773,1.129,3.773,1.129-1.914-2.586-4.033-2.228A47.562,47.562,0,0,0,545.008,345.588Z" transform="translate(-475.671 -309.772)"/><path class="q" d="M550.248,345.237l.507,2.057-8.419-2.027-4.072.339s1.822-2.644,3.956-2.366A53.026,53.026,0,0,1,550.248,345.237Z" transform="translate(-488.619 -309.149)"/><g transform="translate(62.505 40.798)"><path class="q" d="M542.536,354.254a4.146,4.146,0,0,0,.244-.379c.043-.076.085-.159.131-.247l.07-.134c.021-.046.043-.095.067-.147a10.7,10.7,0,0,0,.525-1.435,17.559,17.559,0,0,0,.415-1.813c.113-.644.192-1.261.25-1.822.03-.278.055-.546.07-.8s.021-.5.015-.717c-.012-.446.287-.3.208-.543a1.219,1.219,0,0,0-.122-.272c-.043-.058-.082-.086-.116-.079-.073.009-.116.147-.162.379s-.095.562-.171.965-.186.882-.3,1.435-.546,3.013-.653,3.553-.2,1.023-.293,1.432C542.549,354.44,542.384,354.45,542.536,354.254Z" transform="translate(-542.476 -344.525)"/><path class="q" d="M549.362,347.842a3.381,3.381,0,0,1,.6-.98,2.7,2.7,0,0,1,1.95-1.044.258.258,0,0,0-.089-.192.757.757,0,0,0-.366-.174,1.407,1.407,0,0,0-.586.006,1.774,1.774,0,0,0-1.133.827c-.11.192-.2.412-.293.556a1.449,1.449,0,0,0-.223.864A.279.279,0,0,0,549.362,347.842Z" transform="translate(-528.644 -345.424)"/><path class="q" d="M568.063,353.8c-.086,0-.2-.006-.321,0s-.275.021-.44.037c-.082.009-.171.015-.259.027l-.287.046c-.1.018-.2.034-.312.055l-.333.073c-.229.046-.473.116-.73.186l-.1.027-.1.031-.2.064c-.134.046-.275.089-.412.14a18.718,18.718,0,0,0-3.712,1.871c-.659.418-1.328.891-2,1.4s-1.352,1.053-2.036,1.621c-1.367,1.139-2.637,2.244-3.822,3.2l-.22.18-.22.171-.217.171-.214.168c-.144.107-.284.22-.418.317s-.272.192-.406.281a8.387,8.387,0,0,1-1.609.824,6.316,6.316,0,0,1-1.435.366,5.536,5.536,0,0,1-.608.043c-.186,0-.36-.009-.513-.024a6.831,6.831,0,0,1-.717-.11l-.061-.012-.052-.009-.082-.009c-.046,0-.073.006-.082.021s.006.04.04.073l.064.058.043.034.055.037c.037.021.079.049.128.076l.162.079c.061.024.125.052.2.079s.147.052.229.076a4.044,4.044,0,0,0,.558.119,5.144,5.144,0,0,0,.678.043,6.006,6.006,0,0,0,1.627-.25,8.2,8.2,0,0,0,1.826-.784c.156-.089.308-.186.464-.287s.3-.208.452-.314c.076-.052.153-.107.226-.159l.229-.168.229-.168.232-.174c1.239-.931,2.537-2.024,3.9-3.15.678-.565,1.343-1.108,1.993-1.615s1.291-.983,1.911-1.41a22.456,22.456,0,0,1,3.462-1.987c.128-.061.256-.113.382-.165l.183-.079.092-.04.092-.034c.238-.092.461-.183.678-.253l.308-.11.29-.095.266-.085c.085-.027.168-.049.244-.073.153-.043.29-.089.409-.125s.22-.064.3-.095c.165-.058.247-.1.244-.14S568.24,353.806,568.063,353.8Z" transform="translate(-534.936 -328.246)"/></g><g transform="translate(28.708 77.365)"><path class="q" d="M531.488,372.474c-.052-.009-.079-.153-.082-.418,0-.134,0-.3.018-.492.009-.094.015-.2.028-.311s.028-.226.043-.351a16.066,16.066,0,0,1,.357-1.8c.046-.174.092-.354.147-.537.027-.092.055-.186.086-.281l.092-.287.049-.146.052-.147.11-.3c.079-.2.156-.409.247-.62a14.4,14.4,0,0,1,1.447-2.631,12.541,12.541,0,0,1,1.059-1.322c.2-.217.406-.424.623-.635s.449-.409.69-.6a12.17,12.17,0,0,1,1.566-1.081,12.755,12.755,0,0,1,1.792-.855,13.5,13.5,0,0,1,1.96-.586c.339-.076.681-.14,1.023-.192.171-.027.342-.052.51-.073l.492-.07a29.727,29.727,0,0,1,4.02-.327c.33,0,.656.009.98.021l.244.015.235.015.455.031c.6.037,1.2.067,1.774.092,2.317.1,4.414.128,6.179.171l1.258.037a9.2,9.2,0,0,0,1.065-.031,4.477,4.477,0,0,0,1.6-.4,2,2,0,0,0,.769-.644c.138-.2.2-.327.26-.314.028.006.046.043.055.116a.688.688,0,0,1,0,.137,1.227,1.227,0,0,1-.031.186,1.562,1.562,0,0,1-.22.492,2.057,2.057,0,0,1-.214.272,2.747,2.747,0,0,1-.293.262c-.055.043-.113.083-.174.122s-.125.079-.189.116a3.249,3.249,0,0,1-.427.2,5.845,5.845,0,0,1-1,.3,8.976,8.976,0,0,1-1.172.156l-.617.04-.647.037c-1.767.095-3.877.18-6.233.159-.589-.006-1.194-.021-1.81-.043l-.467-.021-.449-.015c-.3-.009-.6-.009-.91,0a30.723,30.723,0,0,0-3.816.342l-.25.034-.257.037c-.165.021-.324.043-.482.067-.314.049-.623.1-.928.168a12.524,12.524,0,0,0-1.755.5,11.718,11.718,0,0,0-1.6.724,11.285,11.285,0,0,0-1.41.913c-.22.165-.427.339-.632.513s-.4.357-.58.543a12.508,12.508,0,0,0-1.01,1.145,15.159,15.159,0,0,0-1.487,2.335c-.1.189-.189.379-.281.562l-.128.272-.061.137-.058.131-.116.266-.107.256c-.07.168-.134.336-.2.495-.247.641-.437,1.209-.592,1.673l-.2.62c-.061.18-.119.333-.165.455C531.616,372.355,531.54,372.484,531.488,372.474Z" transform="translate(-531.405 -357.403)"/></g><path class="q" d="M544.192,359.778c2.616-.6,4.246-2.1,6.2-3.947l3.62-3.416c-.024,2.109-.134,7.583,3.324,9.723,1.187.235,5.446-1.142,7.088-2.07-1.835,1.34-5.1,3.874-6.932,5.214-1.526,1.114-3.318,2.717-5.2,2.595.962-.6,2.561-2.766,1.474-3.34a2.927,2.927,0,0,0-2.714-.382A4.8,4.8,0,0,1,548,363.88C546.891,363.471,544.711,360.843,544.192,359.778Z" transform="translate(-476.449 -290.276)"/><g transform="translate(79.672 66.074)"><path class="q" d="M560.039,393.364a8.076,8.076,0,0,1,1.1-2.286c.763-1.432,1.923-3.465,3.214-6.047l.485-1,.25-.516c.082-.174.171-.348.25-.525l.5-1.093c.085-.186.174-.372.256-.562l.247-.58.253-.586.128-.3c.043-.1.089-.2.128-.3l.494-1.233c.04-.107.083-.211.122-.314l.119-.321.238-.647.122-.324c.036-.11.082-.22.116-.33l.226-.668a43.61,43.61,0,0,0,1.526-5.715c.025-.125.052-.25.073-.375l.061-.382.125-.763.095-.772.024-.2.012-.1.009-.1.031-.391.034-.394c.006-.064.012-.128.018-.2l.009-.2.034-.791,0-.794,0-.1,0-.1-.009-.2-.015-.4a17.157,17.157,0,0,0-.421-3.1l-.1-.369-.046-.183c-.018-.061-.039-.122-.058-.183l-.11-.36c-.04-.116-.086-.232-.128-.351a9.187,9.187,0,0,0-.6-1.328c-.058-.1-.119-.2-.18-.3a1.717,1.717,0,0,0-.095-.143l-.094-.144c-.144-.2-.287-.388-.437-.568a5.517,5.517,0,0,0-.962-.931l-.064-.046-.064-.046-.067-.043-.064-.04-.067-.043-.067-.037-.067-.037-.064-.03-.064-.031-.067-.03c-.046-.018-.089-.037-.141-.052s-.094-.034-.143-.049l-.149-.043-.073-.018-.079-.018c-.049-.012-.1-.024-.152-.034-.107-.015-.21-.037-.317-.049l-.159-.018c-.055-.006-.107-.006-.161-.012l-.162-.009-.162,0-.165,0-.161.006c-.11,0-.22,0-.327.015l-.165.012a1.469,1.469,0,0,0-.162.015l-.327.04c-.052.006-.107.018-.162.024l-.158.028-.162.027-.161.033-.318.07-.315.079a16.578,16.578,0,0,0-2.4.839l-.143.061c-.049.018-.095.043-.141.064l-.281.128-.275.128-.272.134-.268.134-.135.067-.131.07-.516.278c-.086.043-.171.092-.254.141l-.25.143-.247.14-.122.07-.119.073-.473.287c-.08.049-.156.095-.232.143l-.229.146-.446.287c-.146.092-.287.192-.43.287-.281.192-.559.375-.821.565l-.391.275c-.128.092-.256.18-.379.272l-.714.528c-.116.083-.226.171-.336.253l-.323.247c-.214.162-.418.314-.611.467l-.556.436-.259.2-.241.2c-.318.253-.6.476-.849.666s-.452.357-.626.485c-.345.253-.546.369-.583.33s.091-.229.369-.559c.14-.162.317-.363.531-.6s.47-.485.757-.775l.223-.223.238-.229.519-.492c.18-.171.375-.345.574-.525l.308-.275c.107-.092.21-.189.324-.284l.687-.583c.119-.1.244-.2.369-.3l.379-.305c.257-.208.531-.412.809-.623.14-.1.281-.214.427-.317l.443-.317a27.752,27.752,0,0,1,4.167-2.47,17.311,17.311,0,0,1,2.564-.983c.116-.031.229-.064.345-.1l.354-.085c.061-.012.119-.027.18-.04l.18-.037.183-.033a1.806,1.806,0,0,1,.183-.034l.373-.055c.061-.012.125-.015.186-.021l.193-.021c.125-.015.253-.018.384-.028l.192-.009h.394l.2.009.2.009.2.021c.134.009.268.034.406.055.067.009.137.024.2.04l.1.022.1.024.2.055c.07.018.14.043.207.064s.14.052.211.079l.1.04.1.049.107.049.1.052.095.052.095.055.095.058.091.058.092.061.089.061a6.956,6.956,0,0,1,1.242,1.163c.18.211.351.43.513.65.079.116.165.238.244.357s.153.244.223.366a10.528,10.528,0,0,1,.717,1.539c.049.134.1.265.146.4l.128.4c.022.067.046.134.064.2l.055.2.11.412a18.172,18.172,0,0,1,.47,3.385l.019.43.006.214,0,.107v.107l-.006.852c-.012.281-.027.562-.039.842l-.012.211c0,.067-.009.137-.016.208l-.039.415-.036.412-.009.1-.012.1-.027.2-.107.815c-.043.269-.089.534-.135.8l-.067.4c-.024.134-.055.262-.079.394a42.005,42.005,0,0,1-1.67,5.892l-.244.681c-.04.116-.088.226-.131.336l-.131.333-.259.653-.128.324c-.043.11-.091.214-.135.32l-.54,1.245c-.043.1-.092.2-.137.3l-.14.3-.277.592-.272.577c-.092.192-.189.378-.281.565l-.552,1.09c-.089.18-.186.351-.278.522l-.275.513-.537.983c-1.432,2.549-2.744,4.515-3.669,5.855C560.7,392.72,560.127,393.422,560.039,393.364Z" transform="translate(-548.1 -353.704)"/></g><g transform="translate(47.706 35.835)"><path class="q" d="M544.725,356.128a16.588,16.588,0,0,1-2.934-1.893,11.887,11.887,0,0,1-2.292-2.408,7.317,7.317,0,0,1-1.294-3.166,4.543,4.543,0,0,1,.342-2.381,3.455,3.455,0,0,1,1.392-1.661,1.958,1.958,0,0,1,1.123-.272,4.245,4.245,0,0,1,2.348,1.221,8.359,8.359,0,0,1,1.087,1.2.911.911,0,0,0,.687.382h0a.9.9,0,0,0,.73-.3,9.7,9.7,0,0,1,1.346-1.181,4.408,4.408,0,0,1,2.576-.989,1.742,1.742,0,0,1,.742.208,2.933,2.933,0,0,1,1.353,1.856,5.967,5.967,0,0,1,.128,2.836C551.181,353.948,546.028,355.743,544.725,356.128Z" transform="translate(-536.523 -342.678)"/><path class="t" d="M538.152,348s.153-3.523,2.94-3.657c0,0,1.893,6.008,4.438,9.481.626.852-.549,1.056-1.6.577C540.829,352.99,538.152,348,538.152,348Z" transform="translate(-536.553 -342.675)"/><path class="u" d="M539.214,344.208c1.746,3.477,4.228,7.586,6.27,10.9a6.1,6.1,0,0,0,3.492-3.025l-3.733-5.461,2.534,5.116-3.544-5.248a8.847,8.847,0,0,1-1.178.4c-.635.165-1.407-1.377-1.407-1.377Z" transform="translate(-534.373 -342.957)"/><path class="t" d="M552.683,344.509c-2.836-1.5-6.313,2.369-6.313,2.369s-3.129-4.454-6.3-2.65a5.546,5.546,0,0,0-2.393,5.428c.821,5.928,8.034,9.1,8.034,9.1s7.867-1.893,9.1-8.035C555.284,348.4,554.625,345.541,552.683,344.509Zm.482,6.194c-.879,4.365-6.032,6.16-7.335,6.545a16.6,16.6,0,0,1-2.934-1.893,11.88,11.88,0,0,1-2.292-2.408,7.317,7.317,0,0,1-1.294-3.166,4.544,4.544,0,0,1,.342-2.381,3.457,3.457,0,0,1,1.392-1.661,1.957,1.957,0,0,1,1.123-.272,4.245,4.245,0,0,1,2.347,1.221,8.383,8.383,0,0,1,1.087,1.2.91.91,0,0,0,.687.382h0a.9.9,0,0,0,.73-.3,9.7,9.7,0,0,1,1.346-1.181,4.407,4.407,0,0,1,2.576-.989,1.743,1.743,0,0,1,.742.208,2.932,2.932,0,0,1,1.352,1.856A5.962,5.962,0,0,1,553.166,350.7Z" transform="translate(-537.628 -343.798)"/></g><path class="r" d="M576.854,343.678c-7.442,4.023-15.556,12.388-23.188,16.035S538.62,368,533.553,374.769c.69-8.926,6.664-23.8,13.63-29.421,7.613-6.151,16.722-3.468,26.082-6.325,2.976-.907,9.03-3.737,10.794.073C586.074,343.452,579.791,342.088,576.854,343.678Z" transform="translate(-498.287 -321.59)"/><g transform="translate(2.673 52.737)"><path class="r" d="M532.449,404.585c.012.024-.034.077-.141.156l-.092.064-.119.067-.14.076-.165.073a4.122,4.122,0,0,1-.922.278c-.095.015-.192.028-.3.043s-.207.018-.32.027-.223.009-.342.009l-.18-.006-.092,0-.091-.009-.189-.015c-.064-.006-.128-.015-.2-.024-.131-.015-.263-.046-.4-.07-.067-.015-.134-.031-.2-.049l-.1-.024-.1-.03c-.07-.018-.143-.04-.214-.061l-.213-.073a7.375,7.375,0,0,1-.877-.379,7.6,7.6,0,0,1-.882-.537,7.247,7.247,0,0,1-1.642-1.6,7.041,7.041,0,0,1-.659-1.078,8.907,8.907,0,0,1-.5-1.224,10.36,10.36,0,0,1-.479-2.766,13.89,13.89,0,0,1,.226-3.007c.091-.513.214-1.026.357-1.542.073-.259.15-.519.235-.772s.171-.516.272-.772a23.075,23.075,0,0,1,1.407-3.068l.211-.379c.073-.128.15-.25.223-.379.147-.25.305-.5.461-.748.079-.125.162-.247.244-.372s.162-.247.247-.369l.256-.366c.043-.061.086-.122.131-.183l.134-.183a34.517,34.517,0,0,1,2.329-2.836,53.327,53.327,0,0,1,5.608-5.22c.5-.415,1.013-.818,1.52-1.215s1.013-.788,1.517-1.169c1-.766,2-1.508,2.973-2.244,1.947-1.465,3.8-2.891,5.486-4.335q1.264-1.081,2.393-2.173c.189-.18.369-.366.553-.546s.36-.369.537-.549.348-.366.516-.55l.25-.275.122-.137.122-.137q.971-1.1,1.78-2.2c.067-.092.134-.18.2-.272l.192-.272c.122-.18.244-.36.357-.543.232-.363.449-.727.644-1.087l.073-.134.07-.137.138-.269c.088-.18.177-.357.256-.537.165-.354.305-.708.437-1.053a13.387,13.387,0,0,0,.577-2,10.908,10.908,0,0,0,.208-1.792,8.363,8.363,0,0,0-.092-1.514c-.015-.113-.04-.223-.058-.327l-.031-.159-.037-.15-.036-.147-.015-.07-.022-.067-.076-.266c-.012-.043-.028-.082-.043-.125l-.04-.116-.04-.116-.021-.055-.021-.052-.079-.2c-.024-.064-.046-.125-.073-.18-.052-.113-.095-.211-.132-.3s-.073-.156-.1-.217c-.049-.119-.064-.189-.043-.2s.083.024.174.116c.046.046.1.107.168.18s.125.168.2.272a1.87,1.87,0,0,1,.11.171l.119.192.034.052.027.055.058.113.064.119c.018.04.043.082.061.125l.116.269.031.073.027.073.058.15.055.156.052.165c.031.113.07.226.1.348a8.241,8.241,0,0,1,.238,1.621,10.264,10.264,0,0,1-.095,1.948,13.19,13.19,0,0,1-.5,2.177c-.119.375-.253.76-.412,1.145-.073.2-.162.388-.244.583l-.137.293-.067.146-.073.147q-.288.591-.635,1.181c-.116.2-.238.394-.363.592l-.192.3c-.064.1-.131.2-.2.293-.534.782-1.126,1.566-1.78,2.344l-.122.15-.122.143-.253.293c-.168.2-.345.388-.519.583s-.357.388-.54.58-.366.388-.559.577q-1.14,1.154-2.414,2.283c-1.7,1.508-3.562,2.979-5.5,4.469L539.2,376.07c-.5.382-1,.769-1.5,1.16s-1,.791-1.493,1.2a54.936,54.936,0,0,0-5.47,5.052,34.016,34.016,0,0,0-2.262,2.689l-.128.171c-.043.058-.086.116-.125.174l-.25.345c-.082.113-.159.232-.241.348s-.159.229-.235.348c-.15.235-.305.467-.449.7-.07.119-.144.235-.214.351l-.2.357a21.866,21.866,0,0,0-1.383,2.857c-.1.238-.18.479-.272.717s-.162.476-.235.714c-.146.473-.272.943-.369,1.413a13.164,13.164,0,0,0-.29,2.732,9.635,9.635,0,0,0,.333,2.482,8.488,8.488,0,0,0,.394,1.093,6.184,6.184,0,0,0,.525.956,6.532,6.532,0,0,0,1.358,1.477,7.359,7.359,0,0,0,.754.528,7.209,7.209,0,0,0,.757.394l.186.079c.061.024.122.049.183.07l.092.037.091.028c.061.021.119.043.18.061.119.031.238.067.354.092l.171.04.168.031.082.015.082.012.159.021.308.027c.1,0,.2.006.29.006s.186,0,.272-.006a5.453,5.453,0,0,0,.882-.116l.168-.034.147-.04.125-.027.1-.028C532.366,404.566,532.437,404.56,532.449,404.585Z" transform="translate(-522.876 -349.335)"/></g><g transform="translate(79.405 2.025)"><path class="r" d="M556.171,385.669a12.178,12.178,0,0,1,1.56-2.671c.543-.83,1.218-1.841,2.006-3.007l2.68-3.962c1.984-2.934,4.347-6.426,6.878-10.358.632-.98,1.27-1.987,1.887-3.031s1.215-2.118,1.752-3.242a24.636,24.636,0,0,0,1.38-3.507,18.046,18.046,0,0,0,.455-1.853l.046-.235c.015-.079.024-.159.04-.235l.037-.238.03-.238c.025-.159.037-.318.055-.476l.025-.241c.006-.079.009-.159.015-.241l.015-.238c0-.082.009-.162.009-.241l.009-.479-.006-.479,0-.119-.006-.119-.012-.238-.015-.238-.021-.238-.021-.238-.012-.116-.015-.119-.061-.47-.079-.464a18.021,18.021,0,0,0-.437-1.822,18.425,18.425,0,0,0-.622-1.74c-.238-.562-.5-1.108-.788-1.639s-.6-1.035-.928-1.523-.684-.952-1.05-1.4c-.092-.11-.189-.217-.281-.327l-.14-.162-.147-.159c-.1-.1-.192-.211-.29-.311l-.3-.3c-.1-.1-.2-.2-.305-.293l-.15-.143-.076-.07-.079-.07-.311-.275-.076-.067-.083-.067-.159-.131c-.208-.177-.427-.339-.641-.5l-.165-.119-.165-.116c-.11-.076-.217-.156-.33-.229l-.333-.217c-.055-.037-.113-.07-.168-.107l-.171-.1c-.223-.14-.452-.266-.678-.391l-.085-.049-.086-.046-.174-.089-.171-.089c-.058-.028-.113-.058-.171-.085-.232-.107-.458-.223-.69-.321a19.24,19.24,0,0,0-2.753-.965,20.485,20.485,0,0,0-2.653-.519,21.625,21.625,0,0,0-4.664-.089l-.256.025c-.085.006-.168.015-.25.024l-.488.058-.467.07c-.153.021-.3.049-.449.073l-.217.037-.107.021-.1.018-.409.082-.1.021-.1.021-.192.046c-.125.027-.247.055-.366.085l-.345.086c-.113.03-.223.055-.327.088l-.3.083-.284.082-.5.15L548.8,335l-.174.052-.153.046c-.1.03-.177.052-.244.067-.131.031-.2.034-.217.012s.04-.076.153-.156c.055-.04.125-.085.214-.137l.137-.082c.052-.031.107-.058.165-.089.116-.061.247-.131.394-.2s.311-.143.488-.223c.086-.043.18-.079.275-.119l.3-.119c.1-.043.21-.082.32-.122l.345-.125c.119-.043.244-.079.37-.122l.192-.061.1-.034.1-.027.412-.119.107-.031.11-.027.22-.055c.15-.036.3-.076.458-.107s.318-.07.48-.1l.5-.092c.085-.018.174-.031.259-.043l.266-.043a21.048,21.048,0,0,1,4.881-.141,20.749,20.749,0,0,1,2.824.452,19.419,19.419,0,0,1,2.964.94c.25.1.5.214.748.324.064.027.125.058.189.088l.186.092.186.088.095.046.092.049c.247.131.5.259.742.406l.183.107c.061.034.125.07.183.107l.366.229c.125.076.244.159.363.241l.18.122c.061.04.122.082.18.125.235.174.476.345.708.531l.174.137.088.07.085.073.342.29.085.073.082.076.168.153c.113.1.226.2.333.311l.326.321c.11.11.214.22.321.333l.159.168.156.174c.1.116.207.229.308.348q.6.714,1.157,1.5c.36.525.7,1.072,1.022,1.639s.608,1.16.87,1.77.492,1.239.693,1.887a18.75,18.75,0,0,1,.482,1.987l.088.51.07.516.018.128.012.131.024.259.028.26.015.262.016.263.006.131,0,.131c0,.174.006.351.009.528l-.009.528c0,.089-.009.177-.012.266l-.018.266c-.006.089-.009.177-.015.266l-.028.266c-.018.174-.034.351-.058.525l-.037.259-.043.259c-.012.089-.027.174-.043.259l-.049.256a18.79,18.79,0,0,1-.5,2.009,25.513,25.513,0,0,1-1.487,3.721c-.574,1.172-1.2,2.28-1.85,3.343s-1.31,2.073-1.96,3.049c-2.61,3.914-5.073,7.351-7.177,10.211-1.053,1.429-2.018,2.711-2.873,3.831s-1.6,2.079-2.216,2.857A11.775,11.775,0,0,1,556.171,385.669Z" transform="translate(-548.013 -332.723)"/></g><path class="r" d="M590.608,333.682c-10.764,6.807-22.892,7.3-35.331,10.028-6.386,1.4-13.038,2.277-18.761,5.44a26.009,26.009,0,0,0-7.845,6.673c-2.3,2.93-4,6.53-3.843,10.257s2.518,7.494,6.112,8.489,7.983-1.651,8.1-5.379c-.26,2.625-4.252,3.987-6.615,2.818s-3.367-4.252-2.665-6.8a9.648,9.648,0,0,1,5.134-5.718,28.092,28.092,0,0,1,7.57-2.207c9.747-1.865,19.656-3.663,28.564-8.035S587.992,343.252,590.608,333.682Z" transform="translate(-516.219 -328.728)"/><g transform="translate(23.003)"><path class="r" d="M593.507,337.453c-.021.049-.265,0-.711-.131s-1.093-.357-1.923-.641-1.847-.632-3.031-1.01c-.592-.186-1.224-.385-1.9-.577-.339-.1-.687-.2-1.044-.293s-.724-.192-1.1-.284a38.719,38.719,0,0,0-4.982-.907,26.479,26.479,0,0,0-5.745-.04l-.376.04c-.125.015-.25.037-.378.052l-.378.055-.382.067-.189.031c-.064.012-.128.021-.192.037l-.382.079c-.253.049-.513.116-.769.177l-.391.095-.2.049-.2.052-.784.214c-.131.037-.263.079-.394.116l-.394.122-.4.119-.394.131-.4.134c-.131.043-.266.085-.4.134l-.793.29c-.067.021-.131.049-.2.073l-.2.076-.4.156-.2.079-.1.037-.1.043-.4.165c-1.059.443-2.122.928-3.175,1.462s-2.07,1.105-3.041,1.706l-.36.229-.18.116-.088.058-.089.058c-.235.159-.467.308-.7.476l-.7.488-.69.488c-.916.656-1.807,1.31-2.683,1.957s-1.731,1.282-2.573,1.9-1.676,1.209-2.5,1.767-1.642,1.081-2.451,1.563-1.615.907-2.4,1.288l-.592.278c-.2.085-.391.168-.586.253-.1.04-.192.082-.29.122l-.29.11-.287.113c-.094.033-.186.073-.284.1a21.785,21.785,0,0,1-4.2,1.053,20.485,20.485,0,0,1-3.251.2l-.632-.015c-.2-.009-.379-.024-.55-.037s-.33-.027-.473-.043-.272-.037-.388-.052c-.464-.07-.705-.134-.7-.186s.25-.094.714-.125c.113-.009.244-.012.385-.021s.3-.021.467-.034l.54-.031.616-.055a27.424,27.424,0,0,0,3.123-.455,23.258,23.258,0,0,0,3.962-1.224c.088-.034.177-.073.266-.113l.272-.116.271-.119c.089-.04.18-.086.272-.128.18-.085.363-.171.549-.263l.556-.284c.742-.394,1.5-.83,2.268-1.319s1.551-1.02,2.344-1.584,1.6-1.169,2.427-1.795l2.54-1.935c.867-.659,1.761-1.331,2.68-2l.7-.5.708-.5c.232-.168.482-.333.73-.5l.092-.064.095-.061.186-.119.379-.241q1.52-.952,3.153-1.78c1.09-.553,2.189-1.053,3.288-1.5l.409-.171.1-.043.1-.04.208-.079.412-.156.2-.079c.07-.027.137-.052.207-.076l.824-.293c.137-.049.275-.092.412-.137l.412-.134.409-.131.412-.122.412-.119c.137-.04.272-.083.409-.116l.818-.214.2-.052.2-.049.409-.092c.272-.061.537-.125.812-.174l.409-.079c.07-.015.137-.024.2-.034l.2-.034.406-.064.406-.049c.134-.018.269-.037.4-.049l.4-.037a26.565,26.565,0,0,1,6.044.186,36.137,36.137,0,0,1,5.1,1.123c.381.11.751.229,1.111.342s.711.232,1.047.351c.678.235,1.307.473,1.893.7,1.172.461,2.164.894,2.964,1.267s1.413.684,1.822.91S593.528,337.4,593.507,337.453Z" transform="translate(-529.536 -332.059)"/></g><g transform="translate(0 79.707)"><g transform="translate(36.276 49.306)"><g transform="translate(47.194 5.153)"><path class="t" d="M549.344,376.563a.556.556,0,1,1,.558.559A.556.556,0,0,1,549.344,376.563Zm1.044,0a.487.487,0,1,0-.485.488A.485.485,0,0,0,550.388,376.563Zm-.213.317h-.092l-.174-.281h-.141v.281h-.07v-.608h.265c.162,0,.217.061.217.162,0,.119-.082.162-.192.165Zm-.287-.348c.085,0,.223.012.223-.1,0-.079-.089-.089-.162-.089h-.18v.189Z" transform="translate(-549.344 -376.01)"/></g><g transform="translate(0 0.147)"><path class="t" d="M534.418,374.37v2.363h.015a1.137,1.137,0,0,1,.241-.391,1.461,1.461,0,0,1,.357-.284,1.683,1.683,0,0,1,.443-.171,2.042,2.042,0,0,1,.47-.055,2.019,2.019,0,0,1,.867.174,1.779,1.779,0,0,1,.61.473,2,2,0,0,1,.363.7,2.977,2.977,0,0,1,0,1.667,1.956,1.956,0,0,1-.363.693,1.711,1.711,0,0,1-.61.473,2.065,2.065,0,0,1-.867.171,1.91,1.91,0,0,1-.949-.232,1.356,1.356,0,0,1-.6-.662h-.015v.781h-.492v-5.7Zm2.872,3a1.653,1.653,0,0,0-.253-.562,1.368,1.368,0,0,0-.443-.4,1.282,1.282,0,0,0-.65-.156,1.487,1.487,0,0,0-.711.156,1.363,1.363,0,0,0-.473.4,1.556,1.556,0,0,0-.262.562,2.578,2.578,0,0,0,0,1.27,1.556,1.556,0,0,0,.262.562,1.359,1.359,0,0,0,.473.4,1.484,1.484,0,0,0,.711.156,1.28,1.28,0,0,0,.65-.156,1.364,1.364,0,0,0,.443-.4,1.653,1.653,0,0,0,.253-.562,2.491,2.491,0,0,0,0-1.27Z" transform="translate(-533.884 -374.37)"/><path class="t" d="M535.877,374.888l1.435,3.511,1.343-3.511h.531l-1.89,4.738c-.082.177-.152.32-.22.433a.98.98,0,0,1-.226.272.706.706,0,0,1-.287.143,1.586,1.586,0,0,1-.418.046l-.247-.012a.546.546,0,0,1-.156-.028v-.424c.061.012.122.021.18.027a1.174,1.174,0,0,0,.183.012.791.791,0,0,0,.29-.046.629.629,0,0,0,.2-.134.771.771,0,0,0,.143-.2c.04-.079.083-.168.128-.263l.183-.464-1.737-4.1Z" transform="translate(-530.953 -373.307)"/></g><g transform="translate(10.013)"><path class="t" d="M538.814,374.773v4.2l.986,1.371h.244v-4.973a1.37,1.37,0,0,1,1.148-.046l.241-.971A4.954,4.954,0,0,0,538.814,374.773Z" transform="translate(-533.777 -374.263)"/><path class="t" d="M548.163,380.348v-6h1.27v5.257h1.88v.742Z" transform="translate(-514.587 -374.264)"/><path class="t" d="M546.764,380.491a3.294,3.294,0,0,1-1.682-.339l.306-.775a2.292,2.292,0,0,0,1.138.278c.675,0,1.09-.366,1.09-.922,0-.455-.3-.733-1.059-1.01-1.108-.412-1.407-1.056-1.407-1.639a1.852,1.852,0,0,1,2.042-1.761,2.911,2.911,0,0,1,1.5.339l-.278.681a2.228,2.228,0,0,0-1.05-.269c-.623,0-.98.339-.98.87s.433.766,1.029.986c1.34.495,1.535,1.16,1.535,1.734A1.956,1.956,0,0,1,546.764,380.491Z" transform="translate(-520.911 -374.322)"/><path class="t" d="M545.83,380.491c-1.539,0-2.3-.659-2.3-1.81,0-1.566,1.435-2.018,3.153-2.195v-.321c0-.772-.461-.983-1.12-.983a3.236,3.236,0,0,0-1.413.366l-.3-.775a4.328,4.328,0,0,1,1.941-.452,1.85,1.85,0,0,1,2.085,2.054v3.685A4.279,4.279,0,0,1,545.83,380.491Zm.848-3.364c-1.2.153-1.948.43-1.948,1.511,0,.772.44,1.1,1.184,1.1a1.69,1.69,0,0,0,.763-.165Z" transform="translate(-524.107 -374.322)"/><path class="t" d="M542.491,383.041l-4.048-5.724h-.021v3.031h-1.258v-6h1.258v2.738h.021l1.951-2.738h1.288l-2.131,2.772,4.252,5.919Z" transform="translate(-537.164 -374.264)"/><path class="t" d="M546.9,380.348c-.009-.146-.437-3.965-.437-3.965a5.816,5.816,0,0,1-.027-.723h-.021a7.208,7.208,0,0,1-.2.723s-1.218,3.736-1.3,3.938h-.714c-.07-.174-1.288-3.947-1.288-3.947-.119-.375-.2-.714-.2-.714H542.7a6.126,6.126,0,0,1-.03.714s-.424,3.8-.434,3.974h-1.062l.763-6H543.2l1.221,3.816c.119.385.177.672.177.672h.021a5.055,5.055,0,0,1,.177-.672l1.258-3.816h1.27l.763,6Z" transform="translate(-528.933 -374.264)"/><path class="t" d="M548.755,380.491c-1.535,0-2.277-1.325-2.277-3.077,0-1.78.742-3.092,2.277-3.092s2.277,1.313,2.277,3.092C551.032,379.167,550.291,380.491,548.755,380.491Zm0-5.318c-.873,0-1.047,1.09-1.047,2.228,0,1.123.2,2.174,1.047,2.174.885,0,1.047-1.05,1.047-2.174C549.8,376.263,549.64,375.174,548.755,375.174Z" transform="translate(-518.046 -374.322)"/><path class="t" d="M541.888,380.491c-1.532,0-2.277-1.325-2.277-3.077,0-1.78.745-3.092,2.277-3.092s2.277,1.313,2.277,3.092C544.165,379.167,543.424,380.491,541.888,380.491Zm0-5.318c-.873,0-1.047,1.09-1.047,2.228,0,1.123.193,2.174,1.047,2.174.885,0,1.047-1.05,1.047-2.174C542.935,376.263,542.773,375.174,541.888,375.174Z" transform="translate(-532.141 -374.322)"/></g></g><path class="v" d="M548.937,369.655c14.427-13.893,41.272-8.169,41.272-8.169a28.638,28.638,0,0,1-5.089,11.823c-27.508-3.175-31.8,4.151-34.715,5.623-8.737,4.423-2.369,8.01-3.028,8.035C530.258,387.623,538.9,391.961,548.937,369.655Z" transform="translate(-489.912 -353.76)"/><path class="s" d="M544.136,375.945a128.357,128.357,0,0,0,6.957-11.319l-2.36.537a5.381,5.381,0,0,1-4.2,2.875Z" transform="translate(-476.564 -344.918)"/><path class="t" d="M528.718,409.7a7.4,7.4,0,0,1-2.7-.482,5.9,5.9,0,0,1-3.984-4.991,6.706,6.706,0,0,1,.708-3.672,8.772,8.772,0,0,1,2.134-2.738,9.208,9.208,0,0,1,.848-.659,6.389,6.389,0,0,1-.772-2.442l0-.031a6.694,6.694,0,0,1,1.414-4.661,12.112,12.112,0,0,1,3.865-3.263A22.591,22.591,0,0,1,536,384.545l.046-.012a11.455,11.455,0,0,1,1.475-.284,6.854,6.854,0,0,1,.7-.037,5.815,5.815,0,0,1,3.355,1.011l.03.024a4.032,4.032,0,0,1-.18-.4,3.654,3.654,0,0,1-.226-.891,30.025,30.025,0,0,1,.079-5.73,53.757,53.757,0,0,1,.656-5.5c.067-.369.162-.94.272-1.654.134-.873.244-1.487.345-1.923a7.05,7.05,0,0,1,.528-1.575,4.863,4.863,0,0,1,2.247-2.244,6.513,6.513,0,0,1,2.189-.665,6.047,6.047,0,0,1,.8-.052,4.738,4.738,0,0,1,2.042.437,3.746,3.746,0,0,1,1.6,1.432q.907-1.209,1.889-2.488a3.791,3.791,0,0,1,1.361-1.1,5.026,5.026,0,0,1,1.587-.437,6.928,6.928,0,0,1,.818-.052,5.319,5.319,0,0,1,1.184.128c.089.018.177.04.263.064.067,0,.134-.006.2-.006a8.045,8.045,0,0,1,.943-.189,5.538,5.538,0,0,1,.724-.049,4.387,4.387,0,0,1,.882.086,3.78,3.78,0,0,1,2.378,1.575l.088-.116a15.179,15.179,0,0,1,1.652-1.829,3.76,3.76,0,0,1,2.118-1,4.665,4.665,0,0,1,.559-.034c.119,0,.247.006.406.012a4.763,4.763,0,0,1,.7-.143,4.355,4.355,0,0,1,.522-.034,3.875,3.875,0,0,1,3.853,3.379,3.769,3.769,0,0,1,.027.617l-.186,4.564c.311-.824.669-1.725,1.062-2.674.263-.65.6-1.511,1.038-2.625.724-1.847,1.114-2.619,1.868-3.273a5.161,5.161,0,0,1,2.891-1.215,6.171,6.171,0,0,1,.818-.052,5.872,5.872,0,0,1,1.523.2,4.927,4.927,0,0,1,.608.2c.678-.2,1.41-.391,2.182-.568q1.1-.256,2.3-.54c.8-.186,1.6-.382,2.375-.574.137-.034.287-.061.437-.082a6.2,6.2,0,0,1,.729-.049,4.05,4.05,0,0,1,3.16,1.41c.085.1.162.2.238.311a3.692,3.692,0,0,1,.293.281,4.869,4.869,0,0,1,.641.842,3.771,3.771,0,0,1-1.716,5.953c-.022.009-.107.04-.363.137a4.731,4.731,0,0,1,.83,2.1,3.783,3.783,0,0,1-1.969,3.8,3.767,3.767,0,0,1,.482.632,5.871,5.871,0,0,1,.778,2.219c.018.11.031.18.037.214a3.769,3.769,0,0,1-2.57,4.759l-1.63.464c.021.107.036.217.049.327a3.626,3.626,0,0,1,.009.629l-.458,6.951.04.027c.235-.589.476-1.19.72-1.792.366-.9.788-1.9,1.255-2.943.308-.717.714-1.67,1.206-2.839.815-1.932,1.246-2.735,2.027-3.382a5.327,5.327,0,0,1,3-1.169,6.459,6.459,0,0,1,.681-.037,6.169,6.169,0,0,1,1.737.244,5.358,5.358,0,0,1,.724.275c.766-.208,1.6-.4,2.491-.586q1.213-.247,2.533-.522c.885-.186,1.761-.052,2.6-.241a3.668,3.668,0,0,1,.446-.07c.217-.021.415-.033.614-.033a3.884,3.884,0,0,1,3.279,1.175,3.427,3.427,0,0,1,.259.36,4.333,4.333,0,0,1,.315.308,5.211,5.211,0,0,1,.65.9,3.776,3.776,0,0,1-1.859,5.931c-.028.009-.192.064-.739.259.04.1.073.2.107.308a4.758,4.758,0,0,1,.846,2.237,3.781,3.781,0,0,1-2.4,3.9l-.119.046a3.757,3.757,0,0,1,.815.98,6.092,6.092,0,0,1,.748,2.32c.018.144.034.229.04.269a3.775,3.775,0,0,1-2.686,4.707l-10.638,2.729a3.72,3.72,0,0,1-.937.119,3.769,3.769,0,0,1-2.067-.617,3.7,3.7,0,0,1-.565-.455,4.2,4.2,0,0,1-.516.382,6.782,6.782,0,0,1-3.016.962,8.947,8.947,0,0,1-.949.049,9.472,9.472,0,0,1-2.674-.385c-.229-.067-.449-.14-.663-.223a3.8,3.8,0,0,1-1.154.379c-.086.021-.3.073-.742.2-.473.131-.684.192-.772.217a3.77,3.77,0,0,1-1.221.2c-.113,0-.229-.006-.345-.015a3.768,3.768,0,0,1-2.937-1.9c-.14.223-.281.437-.424.641a8.392,8.392,0,0,1-1.829,1.978,3.79,3.79,0,0,1-2.265.757,3.922,3.922,0,0,1-.824-.091,3.775,3.775,0,0,1-2.161-1.374,7.937,7.937,0,0,1-.839-.757,4.063,4.063,0,0,1-.485-.635l-1.456,2.012a3.78,3.78,0,0,1-3.04,1.563h-.024a5.331,5.331,0,0,1-1.459-.2,6.085,6.085,0,0,1-.9-.333c-.357.116-.751.229-1.178.342-.568.15-1.276.308-2.109.476s-1.593.3-2.286.4-1.371.189-2.036.253c-1.087.11-2.073.165-2.924.165-.519,0-1.007-.021-1.453-.061a3.811,3.811,0,0,1-1.184-.305l-.36.1-.772.217a3.69,3.69,0,0,1-1.221.2c-.116,0-.232-.006-.345-.015a3.76,3.76,0,0,1-2.937-1.9c-.14.223-.284.437-.424.641a8.463,8.463,0,0,1-1.828,1.978,3.792,3.792,0,0,1-2.265.757,3.7,3.7,0,0,1-.818-.092,3.759,3.759,0,0,1-2.167-1.374c-.1-.085-.2-.162-.284-.235a20.779,20.779,0,0,1-3.15,1.755,14.775,14.775,0,0,1-4.548,1.3C529.371,409.683,529.038,409.7,528.718,409.7Z" transform="translate(-522 -358.17)"/><path class="q" d="M611,378.653a3.046,3.046,0,0,0-.458-.681,2.459,2.459,0,0,0-.376-.327,2.643,2.643,0,0,0-.281-.439,2,2,0,0,0-1.645-.711,3.884,3.884,0,0,0-.406.021,1.515,1.515,0,0,0-.2.031c-.846.189-1.734.379-2.631.568-.882.183-1.731.36-2.54.525-.852.174-1.648.36-2.372.558-.284.076-.571.162-.855.253a2.543,2.543,0,0,0-1-.543,4.057,4.057,0,0,0-1.148-.159c-.152,0-.311.009-.473.025a3.293,3.293,0,0,0-1.865.693c-.376.308-.66.736-1.441,2.589-.5,1.181-.907,2.146-1.215,2.86-.461,1.032-.876,2.006-1.236,2.891s-.714,1.783-1.056,2.641-.681,1.655-1.026,2.4c-.079.168-.162.342-.25.522-.067-.18-.141-.372-.217-.571a8.4,8.4,0,0,0-1.023-1.941,1.679,1.679,0,0,0-1.319-.708l.556-8.447a1.706,1.706,0,0,0,0-.281,1.783,1.783,0,0,0-1.795-1.587c-.058,0-.119,0-.18.009l5.07-1.438a1.679,1.679,0,0,0,1.126-2.168,3.327,3.327,0,0,1-.091-.467,3.907,3.907,0,0,0-.5-1.45,1.666,1.666,0,0,0-1.084-.766,6.566,6.566,0,0,0-1.392-.14,8.769,8.769,0,0,0-1.108.073,14.057,14.057,0,0,0-1.468.269c-.379.089-.73.183-1.05.278.11-.247.22-.482.323-.7.086-.177.174-.36.266-.555a21.145,21.145,0,0,0,2.241-.656c1.209-.418,2.369-.855,3.446-1.3a1.679,1.679,0,0,0,1.02-1.758,2.672,2.672,0,0,0-.6-1.343l-.07-.092a2.336,2.336,0,0,0-.885-1.383,1.669,1.669,0,0,0-1-.327h-.052q.5-.179.962-.348c.552-.211,1.111-.421,1.67-.641.757-.293.891-.339.913-.348a1.675,1.675,0,0,0,.681-2.744,3.049,3.049,0,0,0-.445-.623,2.219,2.219,0,0,0-.351-.293,2.4,2.4,0,0,0-.263-.388,1.955,1.955,0,0,0-1.56-.669,3.734,3.734,0,0,0-.467.031,1.916,1.916,0,0,0-.192.037c-.791.2-1.6.394-2.4.583s-1.578.369-2.317.54c-.773.177-1.5.369-2.171.568-.235.07-.473.146-.708.229a2.5,2.5,0,0,0-.922-.452,3.856,3.856,0,0,0-.983-.125,4.283,4.283,0,0,0-.556.037,3.156,3.156,0,0,0-1.771.711c-.354.305-.613.714-1.3,2.463-.446,1.133-.791,2-1.047,2.647-.4.959-.757,1.862-1.065,2.683s-.617,1.651-.91,2.448c-.284.779-.583,1.523-.882,2.213l-.082.189-.092-.22a8.006,8.006,0,0,0-1-1.789,1.689,1.689,0,0,0-1.2-.665l.311-7.622a1.644,1.644,0,0,0-.012-.275,1.754,1.754,0,0,0-1.773-1.538,2.49,2.49,0,0,0-.26.015,3.425,3.425,0,0,0-.7.183l-.128-.009c-.235-.015-.406-.024-.537-.024a2.12,2.12,0,0,0-.293.018,1.644,1.644,0,0,0-.943.446,12.64,12.64,0,0,0-1.42,1.569c-.385.507-.852,1.212-1.432,2.158-.546.891-1.569,2.595-3.037,5.058l-.015.027c-.321.562-.565,1.02-.748,1.4l-.091.186c-.1.04-.2.076-.311.116l2.357-7.464a1.679,1.679,0,0,0-1.273-2.149,2.532,2.532,0,0,0-.47-.043,3.635,3.635,0,0,0-.461.031,6.393,6.393,0,0,0-.69.143c-.211.052-.293.067-.293.067h-.052l-.1,0h-.064a1.6,1.6,0,0,0-.211.012,2.015,2.015,0,0,0-.2.037,2.782,2.782,0,0,0-.513-.156,3.089,3.089,0,0,0-.73-.082,4.518,4.518,0,0,0-.559.037,3.1,3.1,0,0,0-.94.247,1.7,1.7,0,0,0-.607.491c-1.212,1.578-2.347,3.086-3.373,4.484-.757,1.035-1.487,2.039-2.171,3L549,367.23a1.675,1.675,0,0,0-.949-1.7,2.657,2.657,0,0,0-1.151-.238,4.227,4.227,0,0,0-.537.037,4.594,4.594,0,0,0-1.5.452,2.753,2.753,0,0,0-1.307,1.285,5.3,5.3,0,0,0-.376,1.13c-.085.385-.189.971-.318,1.786-.116.754-.21,1.334-.281,1.716a51.994,51.994,0,0,0-.626,5.287,28.688,28.688,0,0,0-.091,5.3,1.794,1.794,0,0,0,.1.4,1.919,1.919,0,0,0,1.731,1.178l.076.012.247.11a3.862,3.862,0,0,0,.638.223,3.068,3.068,0,0,0,.76.091h.1a1.73,1.73,0,0,0,.333-.046c-.07.079-.14.162-.2.241-.421.531-.965,1.3-1.609,2.3-.623.956-1.749,2.732-3.453,5.431l-.015.024c-.363.6-.641,1.09-.849,1.5L539.6,394l-.043.015c-.281.1-.592.2-.931.3a5.6,5.6,0,0,0-2.049-1.795l-.073-.037a6.706,6.706,0,0,0,2.253-1.1,5.363,5.363,0,0,0,1.877-2.39,1.66,1.66,0,0,0-.015-1.218,4.738,4.738,0,0,0-1.642-2.241,3.747,3.747,0,0,0-2.164-.641c-.159,0-.324.009-.491.024a10.634,10.634,0,0,0-1.218.244,20.594,20.594,0,0,0-5.235,2,10.116,10.116,0,0,0-3.218,2.677,4.68,4.68,0,0,0-1.022,3.233,4.064,4.064,0,0,0,1.835,3.056,8.622,8.622,0,0,0,3.056,1.181c.7.141,1.331.262,1.88.363a2.644,2.644,0,0,1-.513.461,8.025,8.025,0,0,1-1.377.723l-.083.037c-.119.055-.232.11-.345.162a1.688,1.688,0,0,0-.1-.6,3.328,3.328,0,0,0-.543-1.017,2.93,2.93,0,0,0-1-.736,1.686,1.686,0,0,0-.733-.168,1.751,1.751,0,0,0-.546.088,7.007,7.007,0,0,0-2.317,1.355,6.673,6.673,0,0,0-1.633,2.085,4.657,4.657,0,0,0-.5,2.537,3.819,3.819,0,0,0,2.662,3.248,5.214,5.214,0,0,0,1.938.339c.251,0,.516-.015.785-.04a12.647,12.647,0,0,0,3.9-1.126,18.25,18.25,0,0,0,3.654-2.17c.29-.223.555-.446.8-.669a2.2,2.2,0,0,0,.537,1.047,5.756,5.756,0,0,0,.714.626c.073.061.119.1.143.125a1.683,1.683,0,0,0,1.065.76,1.628,1.628,0,0,0,.363.04,1.692,1.692,0,0,0,1.007-.336,6.45,6.45,0,0,0,1.364-1.5,17.292,17.292,0,0,0,1.169-1.975c.36-.7.653-1.3.864-1.771.085-.186.165-.369.241-.546.241-.073.485-.156.733-.244a7.969,7.969,0,0,0,.018,1.27,7.166,7.166,0,0,0,.943,2.784,1.67,1.67,0,0,0,1.307.846,1.321,1.321,0,0,0,.153.006,1.672,1.672,0,0,0,.574-.1c.067-.021.272-.079.858-.244.641-.177.867-.229.919-.241a1.527,1.527,0,0,0,.357-.085,1.673,1.673,0,0,0,1.017.464c.382.037.809.052,1.267.052.784,0,1.7-.052,2.717-.152.629-.061,1.282-.144,1.935-.241s1.4-.229,2.182-.385,1.459-.311,1.991-.449c.546-.143,1.026-.29,1.429-.433.064-.024.125-.052.186-.082a2.924,2.924,0,0,0,.516.113l.11.018.284.134a3.673,3.673,0,0,0,.659.25,3.206,3.206,0,0,0,.888.119h.015a1.69,1.69,0,0,0,1.352-.693l5.757-7.967a1.281,1.281,0,0,0,.1.147l.162.208c-.088.186-.2.43-.364.751a16.563,16.563,0,0,0-.821,1.9,4.673,4.673,0,0,0-.25,2.009,2.291,2.291,0,0,0,.589,1.38,6.092,6.092,0,0,0,.714.626,1.781,1.781,0,0,1,.143.125,1.691,1.691,0,0,0,1.062.76,1.852,1.852,0,0,0,.366.04,1.694,1.694,0,0,0,1.008-.336,6.344,6.344,0,0,0,1.364-1.5,16.821,16.821,0,0,0,1.169-1.975c.36-.7.65-1.291.867-1.767.083-.186.162-.369.238-.546.241-.076.485-.156.733-.247a8.684,8.684,0,0,0,.018,1.27,7.157,7.157,0,0,0,.943,2.787,1.675,1.675,0,0,0,1.307.846c.052,0,.1.006.153.006a1.655,1.655,0,0,0,.574-.1c.067-.018.269-.079.858-.244.641-.177.867-.229.922-.241a1.672,1.672,0,0,0,1.242-.821,5.29,5.29,0,0,0,1.542.717,7.471,7.471,0,0,0,2.085.3c.247,0,.5-.012.745-.037a4.726,4.726,0,0,0,2.106-.65c.458-.284.837-.726,1.862-2.6l.018.421a2.684,2.684,0,0,0,2.384,2.543,1.763,1.763,0,0,0,.418-.052l10.639-2.729a1.683,1.683,0,0,0,1.178-2.14,3.69,3.69,0,0,1-.092-.537,4.079,4.079,0,0,0-.482-1.539,1.687,1.687,0,0,0-1.062-.794,7.4,7.4,0,0,0-1.707-.189c-.308,0-.635.018-.967.049a16.13,16.13,0,0,0-1.594.25c-.531.113-1.013.232-1.435.354l-.025.006c.177-.382.351-.739.516-1.059.107-.208.217-.427.336-.662a22.261,22.261,0,0,0,2.515-.662c1.325-.421,2.6-.864,3.785-1.325a1.681,1.681,0,0,0,1.066-1.731,2.834,2.834,0,0,0-.6-1.407l-.094-.128a2.394,2.394,0,0,0-.879-1.477,1.693,1.693,0,0,0-1.331-.321l-2.11.391.006-.015c.458-.125.913-.256,1.358-.391.733-.22,1.419-.443,2.045-.659.611-.214,1.221-.431,1.838-.65.852-.305,1-.354,1.01-.357a1.675,1.675,0,0,0,.739-2.741Zm-33.863-.745a1.668,1.668,0,0,0,.748,1.172,1.648,1.648,0,0,0,.43.672,2.7,2.7,0,0,0-.366-.11,3.339,3.339,0,0,0-.864-.1,4.478,4.478,0,0,0-.485.025,4.264,4.264,0,0,0-.574.092A8.2,8.2,0,0,0,577.139,377.908Zm-20.648,2.43a2.127,2.127,0,0,0,.54.974,4.729,4.729,0,0,0,.5.43l-.073.028a1.025,1.025,0,0,1-.186.052l-.049.009c-.168.037-.345.086-.549.143a5.559,5.559,0,0,0-.6.22c-.079.034-.159.064-.235.092a1.69,1.69,0,0,0,.149-.339Zm-2,3.556c-.085.183-.18.373-.281.565l-.012.028a53.993,53.993,0,0,0-2.512,6.087l-.119.342.446-6.774a1.715,1.715,0,0,0,0-.281,1.783,1.783,0,0,0-1.795-1.587,1.634,1.634,0,0,0-.211.012,3.373,3.373,0,0,0-.772.183l-.171-.018c-.388-.037-.553-.04-.653-.04q-.119,0-.22.009a1.679,1.679,0,0,0-.693.229l3.972-5.8-.079.317c-.192.766-.427,1.728-.7,2.854a1.678,1.678,0,0,0,.418,1.548,6.348,6.348,0,0,0,1.337,1.145,3.52,3.52,0,0,0,1.8.406l.189,0a1.709,1.709,0,0,0,.47-.082,1.274,1.274,0,0,0-.067.128Zm13.914,4.844.681-5.055a1.673,1.673,0,0,0-.907-1.722,2.783,2.783,0,0,0-1.282-.275c-.147,0-.305.009-.47.024a4.792,4.792,0,0,0-1.59.44,2.822,2.822,0,0,0-1.392,1.294,5.392,5.392,0,0,0-.431,1.191c-.1.412-.232,1.041-.391,1.926-.15.818-.272,1.45-.357,1.865a56.963,56.963,0,0,0-.827,5.733c-.067.638-.125,1.227-.168,1.77a1.817,1.817,0,0,0-.183-.009c-.055,0-.11,0-.168.006-1.319.131-2.436.266-3.321.4-.577.086-1.093.165-1.542.244l4.46-12.8a1.656,1.656,0,0,0-.162-1.441l-.015-.024a6.11,6.11,0,0,0,1.175-1.38,15.614,15.614,0,0,0,1.035-1.853c.317-.653.571-1.209.754-1.648.064-.153.128-.3.186-.452.137-.046.278-.095.418-.149a7.188,7.188,0,0,0,.052.98,6.7,6.7,0,0,0,.946,2.586,1.674,1.674,0,0,0,1.331.812l.107,0a1.687,1.687,0,0,0,.614-.116c.061-.022.247-.079.769-.241.568-.171.775-.226.824-.238a1.669,1.669,0,0,0,1.142-.724,5.087,5.087,0,0,0,1.349.562,7.092,7.092,0,0,0,1.783.232,6.983,6.983,0,0,0,.87-.055,5.221,5.221,0,0,0,1.264-.3c-1.352,1.67-2.616,3.263-3.758,4.738C570.216,386.331,569.276,387.564,568.4,388.739Zm11.774-7.686c-.1.119-.2.253-.305.4a2.349,2.349,0,0,0-.818-1.291,1.627,1.627,0,0,0,.418.058,1.649,1.649,0,0,0,.458-.064l1.456-.412A12.893,12.893,0,0,0,580.177,381.053Z" transform="translate(-520.59 -356.76)"/><g transform="translate(3.772 21.411)"><path class="v" d="M526.166,374.258a3.055,3.055,0,0,1,.714-2.07,8.63,8.63,0,0,1,2.7-2.21,18.849,18.849,0,0,1,4.8-1.822c.519-.122.846-.189.974-.2a2.256,2.256,0,0,1,1.538.327,3.2,3.2,0,0,1,1.041,1.49,3.755,3.755,0,0,1-1.319,1.642,5.368,5.368,0,0,1-2.427.977,2.177,2.177,0,0,0-.342-.342.685.685,0,0,1-.278-.394c-.018-.2.137-.455.47-.766q-.719.234-1.545.531a15.733,15.733,0,0,0-1.581.663,4.754,4.754,0,0,0-1.282.885,1.6,1.6,0,0,0-.54,1.148c.113.214.507.36,1.178.44s1.468.177,2.387.3a6,6,0,0,1,1.99.507,3.018,3.018,0,0,1,1.813,2.286,6,6,0,0,1-.943,3.083,7.356,7.356,0,0,1-2.03,2.164,16.477,16.477,0,0,1-3.318,1.969,10.936,10.936,0,0,1-3.37.986,4.173,4.173,0,0,1-1.941-.189,2.2,2.2,0,0,1-1.612-1.853,3.015,3.015,0,0,1,.342-1.633,5.057,5.057,0,0,1,1.23-1.56,5.231,5.231,0,0,1,1.761-1.032,1.384,1.384,0,0,1,.44.3,1.737,1.737,0,0,1,.253.51,3.759,3.759,0,0,0-1.117,1,2.7,2.7,0,0,0-.522,1.368c.134.18.418.247.855.2a11.571,11.571,0,0,0,3.529-1.184,9.495,9.495,0,0,0,1.679-.888,4.127,4.127,0,0,0,1.187-1.224,3.036,3.036,0,0,0,.467-1.639c-.061-.226-.433-.4-1.111-.513s-1.52-.278-2.522-.479a6.928,6.928,0,0,1-2.46-.934A2.4,2.4,0,0,1,526.166,374.258Z" transform="translate(-523.236 -359.531)"/><path class="v" d="M539.029,367.323c.009,0,.119-.04.33-.113a2.387,2.387,0,0,1,.479-.131c.107-.009.165.015.171.076L538.882,384.2c-.128.015-.516.11-1.163.29s-.974.275-.98.284a5.463,5.463,0,0,1-.733-2.128,6.569,6.569,0,0,1,.018-1.38q.078-.76.308-2.2a15.967,15.967,0,0,0-1.963.659,14.767,14.767,0,0,1-2.03.666c-.146.388-.32.8-.522,1.252s-.479,1.014-.827,1.694a16.209,16.209,0,0,1-1.056,1.783,4.892,4.892,0,0,1-1,1.114,2.01,2.01,0,0,0-.531-.562,5.653,5.653,0,0,1-.525-.452.681.681,0,0,1-.153-.406,3.071,3.071,0,0,1,.168-1.3,15.361,15.361,0,0,1,.739-1.7c.342-.69.556-1.157.647-1.4a.455.455,0,0,0,.043-.272.717.717,0,0,0-.107-.311,2.534,2.534,0,0,0-.235-.336c-.1-.122-.208-.263-.33-.418.418-.119.8-.244,1.148-.372s.577-.214.687-.262c.076-.171.21-.44.4-.812s.455-.833.794-1.392q2.509-3.979,3.437-5.412t1.517-2.164a11.93,11.93,0,0,1,1.383-1.453,3.894,3.894,0,0,1,.556.031A1.256,1.256,0,0,1,539.029,367.323Zm-1.691,3.251-3.654,6.676,2.8-.733Z" transform="translate(-514.034 -361.297)"/><path class="v" d="M538.948,367.1a2.83,2.83,0,0,0,.495-.144,1.6,1.6,0,0,1,.406-.11,2.023,2.023,0,0,1,.452,0l-5.434,15.587.7-.159q.678-.151,1.511-.311c.559-.107,1.267-.223,2.131-.351s1.942-.259,3.242-.388c.229.6.385,1.016.467,1.267a5.254,5.254,0,0,1,.192,1.065c-.357.128-.784.256-1.285.388s-1.132.275-1.9.427-1.462.278-2.1.372-1.255.171-1.859.229a19.935,19.935,0,0,1-3.669.1c-.183-.382-.363-.608-.54-.675a30.11,30.11,0,0,1,.846-3.294q.852-3,2.021-6.353a52,52,0,0,1,2.433-5.895c.11-.211.211-.418.308-.62l.342-.73c.128-.043.256-.095.385-.15a4.265,4.265,0,0,1,.424-.153C538.679,367.162,538.82,367.125,538.948,367.1Z" transform="translate(-505.729 -361.798)"/><path class="v" d="M538.9,379.827a9.823,9.823,0,0,0,1.05-1.316q.888-1.2,2.378-3.218t3.214-4.243q1.722-2.225,3.776-4.759a1.715,1.715,0,0,1,.464-.095,2.153,2.153,0,0,1,.781.039.79.79,0,0,1,.717.714l-13.3,18.4a1.635,1.635,0,0,1-.44-.055,2.378,2.378,0,0,1-.388-.147l-.369-.177a1.855,1.855,0,0,0-.516-.128c-.241-.034-.369-.083-.391-.141a29.846,29.846,0,0,1,.241-5.4q.408-3.782.8-5.547.142-.673.369-1.929c.153-.836.275-1.444.369-1.816a3.619,3.619,0,0,1,.3-.84,1.2,1.2,0,0,1,.616-.543,3.13,3.13,0,0,1,1.038-.281,1.572,1.572,0,0,1,.83.079Z" transform="translate(-497.38 -363.138)"/><path class="v" d="M550.336,366.2c.009,0,.119-.04.333-.113a2.27,2.27,0,0,1,.479-.131c.107-.009.162.015.168.076l-1.126,17.046a11.328,11.328,0,0,0-1.163.29c-.647.18-.971.275-.98.284a5.467,5.467,0,0,1-.733-2.128,7.041,7.041,0,0,1,.018-1.38c.055-.507.156-1.239.308-2.2a15.755,15.755,0,0,0-1.96.659,14.977,14.977,0,0,1-2.033.665c-.147.385-.321.8-.522,1.251s-.479,1.013-.827,1.691A15.5,15.5,0,0,1,541.242,384a4.883,4.883,0,0,1-1,1.114,2.011,2.011,0,0,0-.531-.562,5.646,5.646,0,0,1-.525-.452.692.692,0,0,1-.15-.409,3.01,3.01,0,0,1,.165-1.294,15.62,15.62,0,0,1,.739-1.7q.513-1.035.65-1.4a.508.508,0,0,0,.042-.272.8.8,0,0,0-.107-.311,2.7,2.7,0,0,0-.238-.336q-.147-.183-.33-.421c.421-.119.8-.241,1.151-.369s.574-.214.684-.266c.076-.168.211-.437.4-.809s.455-.833.794-1.4q2.51-3.979,3.44-5.409t1.514-2.167a12.2,12.2,0,0,1,1.383-1.45,3.939,3.939,0,0,1,.556.031C550.183,366.147,550.336,366.171,550.336,366.2Zm-1.691,3.251-3.654,6.676,2.8-.733Z" transform="translate(-490.822 -363.613)"/><path class="v" d="M552.255,370.769q.476-1.118,1.227-2.891a8.732,8.732,0,0,1,.965-1.951,1.767,1.767,0,0,1,.964-.318,2.613,2.613,0,0,1,.98.076c.293.089.452.226.47.418a37.152,37.152,0,0,1-1.24,4.228q-.678,1.845-2.268,5.55-1.635,3.787-2.65,5.638a8.49,8.49,0,0,1-1.309,2.03,3.163,3.163,0,0,1-1.386.406,5.726,5.726,0,0,1-2.192-.2,2.889,2.889,0,0,1-1.575-.986,7.567,7.567,0,0,1-1.377-3.37,2.988,2.988,0,0,1,.076-1.126,1.675,1.675,0,0,1,.537-.83,2.168,2.168,0,0,1,1.069-.446,6.762,6.762,0,0,1,.821,1.56c.217.574.409,1.068.577,1.477a2.661,2.661,0,0,0,.61.952,1.429,1.429,0,0,0,1.05.323q.774-1.419,1.319-2.586t1.065-2.488q.522-1.319,1.053-2.628T552.255,370.769Z" transform="translate(-482.985 -364.339)"/><path class="v" d="M549.816,367.5a15.361,15.361,0,0,1,1.96-.666q1.048-.284,2.271-.534c.812-.165,1.661-.342,2.546-.525s1.771-.375,2.653-.574c.324-.031.516-.006.583.076a3.046,3.046,0,0,1,.284.592,1.247,1.247,0,0,1,.437.25,1.66,1.66,0,0,1,.226.354,1.039,1.039,0,0,0,.241.336c-.113.034-.473.162-1.084.378s-1.221.437-1.825.647-1.261.421-1.975.638-1.429.412-2.152.6l-1.319,3.6,5-.928a.83.83,0,0,1,.281.607.489.489,0,0,0,.07.238c.037.064.137.211.3.43a1.251,1.251,0,0,1,.272.577q-1.74.673-3.687,1.288a16.142,16.142,0,0,1-3.117.733c-.266.531-.5,1-.72,1.429s-.44.885-.669,1.386a13.6,13.6,0,0,0-.574,1.5,7.285,7.285,0,0,0-.3,1.429c.315-.085.8-.229,1.456-.424s1.175-.351,1.56-.464.818-.217,1.31-.32a13.519,13.519,0,0,1,1.413-.223,6.426,6.426,0,0,1,2.119.1,2.487,2.487,0,0,1,.272.919,5.389,5.389,0,0,0,.159.833l-10.638,2.732a1.123,1.123,0,0,0-.708-.961,11.041,11.041,0,0,1,.128-2.537,11.467,11.467,0,0,1,.592-2.173c.26-.663.568-1.362.928-2.091s.58-1.2.659-1.4c-.07-.177-.192-.449-.363-.815s-.281-.583-.327-.656c.259-.1.528-.2.8-.29s.507-.162.687-.217c.2-.43.339-.76.427-.989s.314-.809.672-1.74.571-1.468.632-1.615c-.122,0-.232-.006-.323-.012a1.547,1.547,0,0,1-.241-.031,1.028,1.028,0,0,1-.211-.064,1.123,1.123,0,0,1-.473-.562A5.253,5.253,0,0,1,549.816,367.5Z" transform="translate(-475.607 -365.184)"/></g><g transform="translate(22.87 3.773)"><path class="v" d="M532.223,373.566a9.012,9.012,0,0,0,.934-1.23q.783-1.126,2.1-3.007t2.848-3.962q1.529-2.083,3.352-4.454a1.522,1.522,0,0,1,.424-.1,1.92,1.92,0,0,1,.714.018.725.725,0,0,1,.678.638l-11.768,17.183a1.5,1.5,0,0,1-.4-.04,1.945,1.945,0,0,1-.357-.128l-.345-.153a1.649,1.649,0,0,0-.476-.1c-.22-.027-.342-.067-.363-.122a27.918,27.918,0,0,1,.1-4.954q.284-3.475.6-5.1.114-.623.293-1.78c.119-.769.22-1.328.3-1.673a3.427,3.427,0,0,1,.253-.775,1.109,1.109,0,0,1,.556-.513,2.823,2.823,0,0,1,.943-.284,1.439,1.439,0,0,1,.763.055Z" transform="translate(-529.492 -356.563)"/><path class="v" d="M534.311,369.353q.422-1.47,1.194-3.392t1.5-3.422q.732-1.5.922-1.526a2.2,2.2,0,0,0,.415-.009,4.122,4.122,0,0,0,.507-.107c.22-.055.385-.089.488-.1a1.318,1.318,0,0,1,.394-.006l-5.275,16.719a2.2,2.2,0,0,1-1.1-.177,5.134,5.134,0,0,1-.965-.852q.4-1.69.693-2.839c.189-.763.339-1.316.443-1.655s.22-.733.351-1.172S534.158,369.881,534.311,369.353Z" transform="translate(-523.536 -356.596)"/><path class="v" d="M544.247,360.532c.006,0,.107-.037.3-.11a1.975,1.975,0,0,1,.436-.131c.1-.012.15.009.159.067l-.635,15.654a10.554,10.554,0,0,0-1.062.293c-.586.18-.885.275-.892.284a5.009,5.009,0,0,1-.72-1.935,6.156,6.156,0,0,1-.015-1.264q.055-.7.232-2.024a14.94,14.94,0,0,0-1.783.65,13.727,13.727,0,0,1-1.847.659c-.125.357-.278.742-.452,1.16s-.415.94-.717,1.569a14.412,14.412,0,0,1-.928,1.661,4.424,4.424,0,0,1-.885,1.044,1.858,1.858,0,0,0-.5-.5,5.035,5.035,0,0,1-.492-.4.618.618,0,0,1-.149-.369,2.848,2.848,0,0,1,.122-1.194,14.441,14.441,0,0,1,.638-1.575c.3-.641.485-1.074.562-1.3a.4.4,0,0,0,.034-.247.693.693,0,0,0-.1-.287,2.973,2.973,0,0,0-.226-.3l-.311-.375q.572-.179,1.044-.366c.314-.125.522-.211.623-.259q.1-.233.348-.751c.168-.345.4-.775.7-1.3q2.207-3.709,3.025-5.04t1.34-2.024a11.152,11.152,0,0,1,1.236-1.362,3.687,3.687,0,0,1,.507.015A1.241,1.241,0,0,1,544.247,360.532Zm-1.475,3.019-3.2,6.209,2.549-.736Z" transform="translate(-519.672 -357.596)"/><path class="v" d="M546.174,364.694c.275-.69.629-1.581,1.059-2.68a7.85,7.85,0,0,1,.84-1.81,1.609,1.609,0,0,1,.876-.311,2.3,2.3,0,0,1,.9.046c.272.073.418.2.44.372a33.192,33.192,0,0,1-1.038,3.907q-.577,1.708-1.948,5.138-1.415,3.512-2.3,5.232a7.635,7.635,0,0,1-1.151,1.893,2.865,2.865,0,0,1-1.261.4,5.283,5.283,0,0,1-2.015-.134,2.651,2.651,0,0,1-1.468-.867,7,7,0,0,1-1.343-3.059,2.8,2.8,0,0,1,.049-1.035,1.511,1.511,0,0,1,.47-.772,2.017,2.017,0,0,1,.971-.436,6.407,6.407,0,0,1,.788,1.413c.211.522.4.968.565,1.343a2.43,2.43,0,0,0,.58.858,1.337,1.337,0,0,0,.974.272c.449-.879.834-1.682,1.148-2.4s.62-1.49.919-2.3.6-1.627.9-2.436S545.78,365.637,546.174,364.694Z" transform="translate(-512.566 -358.457)"/><path class="v" d="M543.8,361.75a15.017,15.017,0,0,1,1.783-.656q.957-.284,2.07-.54c.742-.171,1.514-.351,2.323-.543s1.615-.385,2.418-.586c.3-.037.473-.018.537.058a2.653,2.653,0,0,1,.275.534,1.137,1.137,0,0,1,.406.22,1.527,1.527,0,0,1,.214.32.991.991,0,0,0,.229.3c-.1.034-.43.159-.986.372s-1.108.427-1.654.635-1.151.418-1.8.629-1.3.415-1.96.6l-1.126,3.327,4.566-.968a.766.766,0,0,1,.272.552.462.462,0,0,0,.07.214,4.793,4.793,0,0,0,.287.391,1.11,1.11,0,0,1,.263.522q-1.58.655-3.352,1.267a14.969,14.969,0,0,1-2.839.745c-.232.492-.44.931-.629,1.325s-.381.821-.58,1.288a12.154,12.154,0,0,0-.492,1.389,6.984,6.984,0,0,0-.244,1.313q.43-.128,1.328-.421c.6-.2,1.068-.348,1.416-.461s.748-.22,1.2-.327a12.562,12.562,0,0,1,1.291-.235,5.913,5.913,0,0,1,1.945.043,2.284,2.284,0,0,1,.269.833,4.718,4.718,0,0,0,.165.763l-9.692,2.75a1.026,1.026,0,0,0-.672-.864,10.285,10.285,0,0,1,.058-2.329,10.7,10.7,0,0,1,.495-2.005c.223-.614.488-1.261.8-1.939s.5-1.111.571-1.3c-.07-.162-.189-.409-.354-.739s-.271-.528-.314-.6q.353-.151.733-.284c.25-.089.458-.159.623-.217.168-.4.293-.7.369-.913s.268-.751.574-1.612.488-1.362.543-1.5c-.113,0-.214,0-.3-.006a1.4,1.4,0,0,1-.22-.021.86.86,0,0,1-.2-.055,1.013,1.013,0,0,1-.446-.5A4.57,4.57,0,0,1,543.8,361.75Z" transform="translate(-505.756 -359.406)"/></g><path class="t" d="M571.277,364.862c-.644,2.113-1.972,4.155-4.439,7.43-.1-1.09.336-1.883.36-2.976a2.946,2.946,0,0,0-1.377-2.824,4.159,4.159,0,0,0-1.77-.29l-8.621-.159c-1.789-.034-6.072-.794-7.4.308C534.8,366.675,565.986,362.1,571.277,364.862Z" transform="translate(-475.227 -346.265)"/></g><g transform="translate(78.372 89.686)"><path class="t" d="M547.756,363.548l-.015-.314c0-1.075.308-1.795,1.514-1.795a1.371,1.371,0,0,1,1.557,1.48,3.265,3.265,0,0,1-.476,1.572l-.968,1.835h1.343v1h-3.037l1.3-2.393a4.852,4.852,0,0,0,.745-1.972c0-.3-.092-.714-.461-.714-.436,0-.461.62-.461.934l.015.37Z" transform="translate(-547.674 -361.439)"/><path class="t" d="M552.139,364.427c0,1.02-.238,2.985-1.627,2.985s-1.627-1.966-1.627-2.985.238-2.985,1.627-2.985S552.139,363.407,552.139,364.427Zm-2.14,0c0,.375-.055,1.941.513,1.941s.516-1.566.516-1.941.052-1.942-.516-1.942S550,364.051,550,364.427Z" transform="translate(-545.188 -361.435)"/><path class="t" d="M550.222,363.548l-.015-.314c0-1.075.305-1.795,1.511-1.795a1.371,1.371,0,0,1,1.557,1.48,3.264,3.264,0,0,1-.476,1.572l-.965,1.835h1.34v1h-3.037l1.3-2.393a4.853,4.853,0,0,0,.745-1.972c0-.3-.092-.714-.461-.714-.437,0-.458.62-.458.934l.012.37Z" transform="translate(-542.618 -361.439)"/><path class="t" d="M553.209,361.471v5.788h-1.114v-4.79h-.553v-1Z" transform="translate(-539.735 -361.373)"/></g><g transform="translate(37.174 13.311)"><path class="q" d="M581.57,336.424c.043.034-.067.257-.32.653-.128.2-.287.44-.485.72s-.437.6-.708.949c-.067.088-.134.18-.207.275l-.229.281-.489.6c-.089.107-.174.214-.266.324l-.284.327-.6.693c-.055.058-.107.119-.159.18l-.165.18-.336.366-.348.382c-.119.128-.238.259-.363.388l-.769.8-.2.208-.2.2-.418.415c-.561.568-1.169,1.139-1.8,1.74l-.98.9-.25.229-.256.229-.522.461c-1.4,1.239-2.94,2.525-4.585,3.834-3.294,2.622-7.049,5.33-11.081,8.019s-7.964,5.113-11.57,7.259c-.9.537-1.783,1.056-2.637,1.557l-1.261.736c-.4.238-.794.485-1.166.739a14.915,14.915,0,0,0-2.012,1.618,8.432,8.432,0,0,0-.788.882,5.112,5.112,0,0,0-.58.931,3.3,3.3,0,0,0-.305.953,1.575,1.575,0,0,0-.028.235l-.009.119v.116c0,.037,0,.076,0,.116l.009.119c.006.08.015.156.027.232a2.674,2.674,0,0,0,.1.433,2.219,2.219,0,0,0,.168.385,1.935,1.935,0,0,0,.519.589,2.643,2.643,0,0,0,.693.366,4.393,4.393,0,0,0,.748.192,7.5,7.5,0,0,0,1.4.079c.43-.009.815-.046,1.151-.079s.617-.076.849-.1c.461-.061.708-.082.723-.031s-.2.171-.65.333c-.223.079-.5.168-.839.253a10.632,10.632,0,0,1-1.185.229,7.542,7.542,0,0,1-1.538.049,4.727,4.727,0,0,1-.9-.159,3.331,3.331,0,0,1-.943-.421,2.754,2.754,0,0,1-.812-.815,2.853,2.853,0,0,1-.278-.534,3.543,3.543,0,0,1-.174-.583c-.024-.1-.037-.2-.055-.3l-.018-.15c-.006-.052-.006-.107-.009-.159l-.009-.159,0-.162a2.8,2.8,0,0,1,.018-.321,4.5,4.5,0,0,1,.339-1.267,6.333,6.333,0,0,1,.656-1.16,9.21,9.21,0,0,1,.861-1.041,15.477,15.477,0,0,1,2.125-1.832c.388-.281.794-.553,1.209-.818l.626-.388.629-.384,2.6-1.609c3.553-2.207,7.443-4.655,11.451-7.329s7.754-5.321,11.063-7.854c1.658-1.267,3.2-2.5,4.628-3.684l.528-.443.263-.217.253-.22,1-.855c.644-.571,1.267-1.111,1.847-1.645l.43-.391c.07-.067.143-.128.211-.2l.208-.192.8-.748c.131-.122.256-.244.378-.363l.366-.354.354-.345.171-.168.168-.168.641-.641.3-.3.284-.3.537-.552.25-.257c.079-.082.156-.168.232-.247.3-.321.571-.6.809-.849s.43-.461.6-.626C581.335,336.549,581.531,336.391,581.57,336.424Z" transform="translate(-534.178 -336.42)"/></g><g transform="translate(9.526 51.834)"><path class="q" d="M553.123,354.9a6.591,6.591,0,0,0-.751-2.308,5.953,5.953,0,0,0-1.563-1.81,7.466,7.466,0,0,0-2.051-1.105,10.454,10.454,0,0,0-2.2-.519,14.007,14.007,0,0,0-2.2-.11,19.458,19.458,0,0,0-4.17.586,21.188,21.188,0,0,0-3.737,1.334,22.019,22.019,0,0,0-3.211,1.838,22.68,22.68,0,0,0-2.659,2.137c-.2.186-.394.366-.577.559l-.278.284-.137.14c-.046.046-.088.095-.131.143l-.513.568-.476.571c-.04.046-.079.092-.116.141l-.113.143-.217.284-.217.281-.2.287-.2.278-.1.14-.092.14-.357.553-.046.067-.04.07-.079.137-.162.272-.156.266c-.052.088-.1.18-.144.269l-.278.519c-.089.171-.165.342-.247.51-.235.492-.424.952-.592,1.4.067.021.134.046.2.067.177-.43.369-.879.613-1.355.082-.162.162-.33.25-.5l.284-.51c.049-.086.094-.174.146-.263l.159-.26.162-.265.082-.134.043-.067.043-.067.363-.537.092-.137.1-.137.2-.272.2-.278c.067-.092.141-.183.214-.275l.22-.278.11-.14c.037-.049.079-.092.116-.137l.479-.559.513-.553c.043-.046.085-.095.131-.137l.134-.137.278-.275c.18-.186.378-.363.574-.546a23.1,23.1,0,0,1,2.634-2.076,21.908,21.908,0,0,1,3.169-1.777,20.9,20.9,0,0,1,3.663-1.282,19.276,19.276,0,0,1,4.072-.553,13.4,13.4,0,0,1,2.121.116,9.831,9.831,0,0,1,2.1.5,7.007,7.007,0,0,1,1.914,1.035,5.424,5.424,0,0,1,1.426,1.664,6.093,6.093,0,0,1,.69,2.131,8.742,8.742,0,0,1-.009,2.311,11.968,11.968,0,0,1-.549,2.3,18.314,18.314,0,0,1-.956,2.219,24.9,24.9,0,0,1-2.631,4.036c-.983,1.249-2.039,2.418-3.1,3.55s-2.122,2.222-3.138,3.321q-.765.82-1.49,1.651c-.122.137-.238.278-.357.415l-.351.418c-.232.281-.455.562-.681.84a48.521,48.521,0,0,0-7.415,13.224,47.467,47.467,0,0,0-1.688,5.586c-.4,1.673-.644,3.135-.812,4.332s-.235,2.134-.284,2.769c-.018.317-.027.559-.034.72a.838.838,0,0,0,.009.247.806.806,0,0,0,.046-.241c.021-.162.049-.4.082-.717.079-.632.183-1.56.379-2.748s.47-2.637.894-4.292a49.095,49.095,0,0,1,9.192-18.584c.226-.275.449-.553.681-.83l.348-.409c.119-.137.235-.278.357-.412.476-.547.974-1.09,1.484-1.636,1.016-1.087,2.079-2.177,3.144-3.309s2.131-2.311,3.132-3.581a25.1,25.1,0,0,0,2.686-4.118,18.608,18.608,0,0,0,.983-2.283,12.437,12.437,0,0,0,.571-2.4A9.268,9.268,0,0,0,553.123,354.9Z" transform="translate(-525.121 -349.039)"/></g><g transform="translate(83.073 65.634)"><path class="w" d="M549.214,353.56" transform="translate(-549.214 -353.56)"/></g><g transform="translate(12.053 18.375)"><path class="q" d="M562.275,338.08a2.183,2.183,0,0,1-.424.339c-.07.049-.149.11-.241.171l-.3.2c-.107.07-.223.15-.351.226l-.406.25c-.577.348-1.294.757-2.152,1.181s-1.85.876-2.97,1.319-2.366.885-3.715,1.31l-.51.159-.522.159c-.174.052-.351.107-.528.159l-.54.156c-.724.208-1.471.415-2.238.62-1.533.415-3.147.827-4.814,1.267-.836.223-1.682.449-2.537.693s-1.724.495-2.588.778-1.71.586-2.524.928a21.015,21.015,0,0,0-2.338,1.136c-.369.214-.733.433-1.077.665l-.256.177c-.043.027-.086.058-.128.088l-.125.092-.247.183c-.083.061-.162.125-.241.189a12.5,12.5,0,0,0-1.716,1.661,10.391,10.391,0,0,0-2.115,3.831,8,8,0,0,0-.32,1.96c0,.079-.006.159-.006.238l0,.235c.009.156.015.311.031.461.009.076.015.153.027.226s.021.15.034.223l.039.22c.012.073.034.143.049.217l.024.107.028.1c.021.07.036.141.058.208.043.137.085.272.134.4s.1.256.15.385l.082.183.043.092.046.089.085.177.095.171.046.082.052.082.1.162c.134.208.272.409.415.589a6.864,6.864,0,0,0,.895.946,6.076,6.076,0,0,0,.888.641,6.007,6.007,0,0,0,.788.388c.058.024.116.043.171.064s.107.043.159.058l.147.046c.049.015.091.031.134.04l.223.061.165.037c.089.024.132.04.132.049s-.049.009-.14,0c-.046,0-.1-.006-.168-.012l-.235-.037c-.043-.006-.089-.018-.137-.027l-.156-.037c-.052-.009-.107-.031-.165-.046s-.119-.034-.183-.055a5.637,5.637,0,0,1-.83-.357,5.96,5.96,0,0,1-.946-.626,7.076,7.076,0,0,1-.961-.953,7.2,7.2,0,0,1-.452-.6l-.107-.168-.052-.082-.052-.086-.1-.177-.1-.18-.049-.092-.046-.095-.091-.192c-.055-.131-.116-.26-.165-.4s-.1-.278-.15-.418c-.024-.073-.042-.147-.064-.217l-.034-.11-.027-.113c-.018-.073-.04-.15-.055-.226l-.046-.229c-.015-.076-.028-.156-.04-.235s-.021-.159-.034-.238c-.021-.159-.031-.324-.039-.488l-.01-.247c0-.085,0-.168,0-.253a8.5,8.5,0,0,1,.305-2.064,10.068,10.068,0,0,1,.836-2.07,11.65,11.65,0,0,1,1.328-1.951,12.89,12.89,0,0,1,1.77-1.737c.083-.067.165-.134.25-.2l.253-.189.128-.1c.043-.031.086-.064.132-.092l.266-.183c.354-.244.727-.47,1.105-.69a21.158,21.158,0,0,1,2.39-1.172c.83-.348,1.688-.659,2.564-.943s1.746-.54,2.607-.784,1.713-.467,2.549-.684c1.673-.437,3.288-.84,4.82-1.239q1.154-.3,2.237-.6l.538-.15c.177-.049.354-.1.528-.15l.522-.153.51-.153c1.346-.4,2.589-.824,3.709-1.239s2.116-.842,2.979-1.239,1.587-.775,2.177-1.1l.415-.226c.128-.073.247-.144.36-.208l.308-.177c.1-.052.18-.1.257-.149A2.228,2.228,0,0,1,562.275,338.08Z" transform="translate(-525.949 -338.078)"/></g><g transform="translate(79.165 9.905)"><path class="q" d="M566.079,335.3c.009-.006.055.034.141.116l.159.159c.058.067.128.143.2.232a10.042,10.042,0,0,1,1.172,1.682,12.28,12.28,0,0,1,.641,1.34,13.411,13.411,0,0,1,.549,1.679,14.87,14.87,0,0,1,.363,2l.028.269.024.275.009.14.009.14.015.284.006.287.006.144v.439l-.006.3c-.015.4-.037.809-.082,1.224s-.1.842-.177,1.273c-.018.107-.04.214-.061.324s-.043.217-.07.323l-.153.657c-.119.436-.235.885-.385,1.331a25.928,25.928,0,0,1-1.053,2.708c-.412.913-.888,1.822-1.41,2.738s-1.09,1.828-1.694,2.747c-.15.229-.305.458-.461.69s-.311.458-.47.69l-.476.693c-.159.232-.314.467-.467.7-.311.473-.61.959-.891,1.456s-.549,1.01-.784,1.535a11.83,11.83,0,0,0-.6,1.633c-.021.067-.037.14-.055.211s-.037.141-.049.211c-.031.141-.061.284-.082.427a6.787,6.787,0,0,0-.085.864c0,.143-.006.287,0,.43l.006.11a.671.671,0,0,0,.009.107l.022.214a4.792,4.792,0,0,0,.183.83l.03.1.019.049.018.052.076.2.018.049.025.049.043.095.046.1c.015.031.031.061.049.092.067.122.132.25.211.366s.156.232.238.348c.342.455.739.882,1.1,1.355a6.018,6.018,0,0,1,.5.751,4.852,4.852,0,0,1,.36.83,5.4,5.4,0,0,1,.2.87,5.644,5.644,0,0,1,.049.876,7.788,7.788,0,0,1-.226,1.7,11.436,11.436,0,0,1-.516,1.575c-.1.253-.211.5-.324.745s-.232.482-.351.717c-.241.473-.507.919-.757,1.364l-.189.333-.2.327-.388.644-.1.159-.1.156-.2.311-.394.617-.4.6-.2.293c-.064.1-.128.2-.2.29-1.068,1.532-2.143,2.9-3.175,4.109l-.766.876-.745.812c-.061.064-.122.131-.183.2l-.183.189-.354.366-.348.357-.342.339-.333.324-.162.159-.079.076-.08.076-.62.574c-.1.092-.2.183-.29.269l-.284.25-.528.464c-.675.574-1.209,1.01-1.581,1.291a3.64,3.64,0,0,1-.583.409,3.774,3.774,0,0,1,.516-.491c.351-.3.861-.763,1.514-1.358l.51-.479.275-.256c.095-.089.186-.18.284-.275l.6-.589.077-.077.079-.079.156-.162.324-.33.333-.342.339-.36.348-.375.177-.189c.058-.064.116-.131.177-.2l.726-.818.748-.879c1-1.215,2.058-2.586,3.1-4.118.067-.095.132-.192.2-.29l.192-.293.394-.6.385-.614.2-.308.1-.156.095-.162.378-.641.193-.324.186-.33c.247-.443.507-.888.736-1.349.119-.232.232-.464.342-.7s.211-.479.308-.724a11.471,11.471,0,0,0,.485-1.514,7.1,7.1,0,0,0,.208-1.587,5.361,5.361,0,0,0-.049-.8,4.976,4.976,0,0,0-.183-.785,4.447,4.447,0,0,0-.323-.742,5.484,5.484,0,0,0-.461-.684c-.342-.449-.745-.876-1.108-1.362-.092-.122-.18-.247-.263-.379s-.156-.266-.232-.4a1.1,1.1,0,0,1-.055-.1l-.049-.1-.049-.107-.024-.052-.021-.055-.086-.22-.021-.055-.018-.055-.036-.113a5.2,5.2,0,0,1-.2-.919l-.024-.235a.757.757,0,0,1-.009-.116l-.006-.119c-.012-.156-.006-.315-.006-.47a7.238,7.238,0,0,1,.095-.931c.021-.156.055-.305.085-.458.015-.073.037-.15.055-.223s.037-.15.058-.223a12.266,12.266,0,0,1,.623-1.7c.244-.546.519-1.071.809-1.578s.6-1,.91-1.48c.159-.241.318-.476.479-.711l.48-.693c.159-.229.317-.455.47-.684s.312-.455.461-.684c.6-.91,1.172-1.813,1.694-2.714s1-1.8,1.407-2.686a26.3,26.3,0,0,0,1.059-2.656c.15-.437.272-.873.391-1.3l.159-.641c.028-.1.046-.211.07-.317s.046-.211.064-.314c.083-.418.141-.833.189-1.24s.076-.806.095-1.2l.012-.293.006-.287v-.287l0-.281-.012-.278-.006-.138-.006-.134-.018-.269-.024-.265a14.542,14.542,0,0,0-.318-1.966,13.414,13.414,0,0,0-.5-1.661,12.763,12.763,0,0,0-.589-1.334,12.251,12.251,0,0,0-1.074-1.713l-.186-.244-.137-.174C566.107,335.362,566.073,335.311,566.079,335.3Z" transform="translate(-547.934 -335.304)"/></g><g transform="translate(42.64 53.371)"><path class="q" d="M535.97,367.624c-.009-.015.037-.07.135-.165.046-.049.107-.107.18-.171l.119-.107c.043-.037.085-.079.131-.125.092-.085.2-.183.308-.287s.229-.229.357-.354.259-.269.4-.415.281-.308.43-.479l.116-.128c.037-.043.073-.089.11-.134l.232-.281c.079-.095.152-.2.229-.3s.159-.2.238-.312l.232-.333c.04-.055.08-.11.119-.168l.116-.177c.076-.119.155-.238.232-.36l.229-.378c.079-.128.149-.262.223-.394s.153-.269.219-.409l.217-.421.2-.437a19.028,19.028,0,0,0,.727-1.871,18.834,18.834,0,0,0,.507-1.945l.092-.473.073-.467c.028-.153.043-.308.062-.458s.039-.3.049-.452l.036-.44c.009-.147.015-.29.021-.43l.012-.211c0-.07,0-.137,0-.208l0-.4c0-.134-.006-.265-.009-.394s0-.253-.012-.375l-.021-.363c0-.058-.006-.116-.012-.174l-.015-.171c-.025-.226-.04-.44-.07-.641s-.049-.4-.083-.571-.055-.345-.082-.5-.058-.29-.082-.415c-.012-.061-.021-.122-.033-.177l-.034-.156c-.022-.095-.036-.177-.049-.244-.021-.134-.024-.208-.009-.211s.055.055.11.18c.028.061.058.141.095.232l.058.15c.018.055.036.113.055.174q.059.188.128.412c.042.15.082.318.128.495s.079.372.122.577.073.421.107.65l.027.174c.006.058.012.119.018.18l.04.369c.015.125.018.253.027.385s.018.266.024.4l.009.415c0,.07,0,.14,0,.214l-.006.214c0,.147,0,.293-.009.443l-.027.455c-.006.153-.028.308-.043.464s-.028.314-.055.473l-.067.482-.089.488a16.713,16.713,0,0,1-1.27,3.929l-.214.446-.229.43c-.07.143-.153.281-.232.418s-.156.272-.238.4l-.244.385c-.082.122-.168.244-.25.363l-.122.177c-.043.058-.085.116-.128.171l-.25.333c-.083.107-.171.211-.253.311s-.162.2-.25.3l-.247.278c-.04.046-.079.089-.119.131l-.125.128c-.162.165-.314.323-.467.464s-.3.278-.437.394-.272.229-.394.327-.241.183-.345.259c-.052.04-.1.076-.146.107l-.134.089c-.083.055-.156.1-.214.134C536.049,367.609,535.982,367.639,535.97,367.624Z" transform="translate(-535.969 -349.543)"/></g><g transform="translate(82.771 27.903)"><path class="q" d="M549.646,354.122c-.018.006-.052-.037-.1-.122l-.04-.073-.043-.091-.049-.107-.049-.128c-.034-.089-.061-.189-.095-.3s-.058-.235-.082-.369a5.2,5.2,0,0,1-.07-.922,6.209,6.209,0,0,1,.125-1.111c.039-.2.091-.4.15-.6s.128-.415.211-.626a11.237,11.237,0,0,1,1.4-2.552c.6-.833,1.227-1.572,1.777-2.253q.417-.508.769-.971c.061-.076.116-.153.171-.226s.113-.146.165-.22l.153-.217.073-.1.07-.1c.745-1.084,1.041-1.85,1.117-1.822.018.006.015.061-.006.159-.009.049-.024.107-.043.177l-.033.113-.043.128q-.05.133-.11.293c-.043.107-.095.22-.15.342l-.043.092-.049.095-.1.2c-.067.134-.15.272-.232.418l-.064.113-.07.11-.143.229c-.046.079-.1.156-.153.235s-.107.159-.165.241c-.226.324-.473.663-.742,1.01-.534.7-1.145,1.447-1.731,2.259a12.31,12.31,0,0,0-1.377,2.427c-.082.2-.153.394-.22.586s-.119.379-.165.565a6.259,6.259,0,0,0-.174,1.035,5.623,5.623,0,0,0-.009.87c.006.128.021.244.037.354s.027.211.049.3l.022.128.024.11.018.1.018.079C549.659,354.058,549.662,354.113,549.646,354.122Z" transform="translate(-549.115 -341.2)"/></g><g transform="translate(34.865 12.252)"><path class="q" d="M537.892,378.475c0,.009-.052.006-.143-.006s-.232-.043-.409-.088a6.5,6.5,0,0,1-.65-.211,5.518,5.518,0,0,1-.843-.409c-.073-.046-.153-.095-.229-.147s-.156-.107-.232-.168a4.382,4.382,0,0,1-.467-.409,4.121,4.121,0,0,1-.443-.516,4.774,4.774,0,0,1-.391-.62,5.646,5.646,0,0,1-.525-1.529,7.986,7.986,0,0,1-.134-1.8,14.789,14.789,0,0,1,.76-4.026A29.309,29.309,0,0,1,536,364.225a57.934,57.934,0,0,1,5.815-8.984,96.851,96.851,0,0,1,7.024-8.062c2.287-2.357,4.451-4.38,6.307-6.029s3.413-2.924,4.5-3.788c.543-.433.971-.76,1.264-.977a2.449,2.449,0,0,1,.467-.311,2.3,2.3,0,0,1-.4.391c-.275.244-.681.6-1.2,1.05-1.047.91-2.561,2.225-4.384,3.9s-3.95,3.721-6.209,6.09a102.936,102.936,0,0,0-6.96,8.047,60.205,60.205,0,0,0-5.8,8.886,29.714,29.714,0,0,0-1.829,4.237,14.764,14.764,0,0,0-.8,3.91,7.928,7.928,0,0,0,.092,1.725,5.616,5.616,0,0,0,.461,1.456,4.848,4.848,0,0,0,.351.6,4.392,4.392,0,0,0,.4.5,4.8,4.8,0,0,0,.427.406c.073.061.147.116.217.168s.146.1.214.153a6.3,6.3,0,0,0,.794.436c.241.11.452.189.623.253l.391.134A.4.4,0,0,1,537.892,378.475Z" transform="translate(-533.422 -336.073)"/></g><path class="x" d="M546.285,351.9c-.824-.037-.9-.708-1.542-.754-1.5-.107-1.774-.437-2.009-.717-.787-.931.449-1.035.754-.971,1.362.29,2.082.937,3.617.339,1.691-.656,3.056-.516,2.516.348-.418.659-.934.751-2.225,1.111C546.99,351.37,546.825,351.926,546.285,351.9Z" transform="translate(-479.971 -296.49)"/><path class="q" d="M544.535,350.219a1.682,1.682,0,0,0-1.731-.635.279.279,0,0,0,.061.394.817.817,0,0,0,.424.131l1.273.14" transform="translate(-479.417 -296.181)"/><path class="q" d="M544.091,350.177a1.687,1.687,0,0,1,1.731-.635.277.277,0,0,1-.064.394.783.783,0,0,1-.424.131l-1.273.14" transform="translate(-476.718 -296.268)"/><g transform="translate(65.927 35.67)"><path class="q" d="M551.56,356.23a16.766,16.766,0,0,1-3.123-1.569,11.839,11.839,0,0,1-2.537-2.146,7.3,7.3,0,0,1-1.63-3.007,4.535,4.535,0,0,1,.082-2.4,3.485,3.485,0,0,1,1.206-1.8,1.963,1.963,0,0,1,1.087-.388,4.223,4.223,0,0,1,2.466.959,8.3,8.3,0,0,1,1.209,1.078.911.911,0,0,0,.724.308h0a.909.909,0,0,0,.693-.379,9.483,9.483,0,0,1,1.212-1.319,4.406,4.406,0,0,1,2.454-1.264,1.762,1.762,0,0,1,.757.125,2.931,2.931,0,0,1,1.548,1.7,5.961,5.961,0,0,1,.433,2.805C557.742,353.364,552.812,355.7,551.56,356.23Z" transform="translate(-542.47 -342.612)"/><path class="t" d="M544.14,348.448s-.229-3.517,2.528-3.95c0,0,2.531,5.767,5.436,8.944.714.781-.433,1.111-1.526.748C547.339,353.119,544.14,348.448,544.14,348.448Z" transform="translate(-542.492 -342.196)"/><path class="u" d="M545.049,344.35c2.109,3.272,5.021,7.085,7.409,10.159a6.1,6.1,0,0,0,3.144-3.385l-4.3-5.025,3.071,4.811-4.088-4.832a8.839,8.839,0,0,1-1.13.528c-.613.232-1.547-1.218-1.547-1.218Z" transform="translate(-540.617 -342.5)"/><path class="t" d="M558.124,343.954c-2.982-1.187-6.023,3.037-6.023,3.037s-3.59-4.091-6.545-1.954a5.547,5.547,0,0,0-1.792,5.654c1.456,5.806,8.969,8.184,8.969,8.184s7.619-2.732,8.181-8.972C561.128,347.544,560.166,344.769,558.124,343.954Zm1.148,6.105c-.4,4.436-5.333,6.777-6.584,7.3a16.764,16.764,0,0,1-3.123-1.569,11.838,11.838,0,0,1-2.537-2.146,7.3,7.3,0,0,1-1.63-3.007,4.533,4.533,0,0,1,.082-2.4,3.483,3.483,0,0,1,1.206-1.8,1.962,1.962,0,0,1,1.087-.388,4.223,4.223,0,0,1,2.466.958,8.306,8.306,0,0,1,1.209,1.078.91.91,0,0,0,.723.308h0a.908.908,0,0,0,.693-.379,9.5,9.5,0,0,1,1.212-1.319,4.405,4.405,0,0,1,2.454-1.264,1.764,1.764,0,0,1,.757.125,2.931,2.931,0,0,1,1.548,1.7A5.957,5.957,0,0,1,559.272,350.06Z" transform="translate(-543.597 -343.744)"/></g><path class="t" d="M543.688,345.445a1.734,1.734,0,0,1,2.021-.412.815.815,0,0,1,.434.427,1.1,1.1,0,0,1,.033.388l-.095,2.491c-.006.183.614.882.482,1.013a11,11,0,0,0,.464,1.752c-1.08-1.908-3.929-.836-4.069-.067-.253-1.328.284-4.506.333-5.858" transform="translate(-479.12 -305.764)"/><path class="q" d="M546.07,355.078a5.863,5.863,0,0,0,4.185-1.239,1.518,1.518,0,0,0,.65-.955,1.424,1.424,0,0,0-.629-1.151,4.885,4.885,0,0,0-3.736-.894c-.87.122-4.252.956-4.28,2.058C542.23,354.156,545.17,354.989,546.07,355.078Z" transform="translate(-480.415 -293.629)"/><path class="t" d="M543.9,351.888q1.122.073,2.25.082a5.727,5.727,0,0,0,1.276-.089.551.551,0,0,0,.345-.174.276.276,0,0,0-.122-.36,1.136,1.136,0,0,0-.458-.143,12.277,12.277,0,0,0-3.312.04c-.272.034-1.123.027-1.1.317C542.815,351.866,543.673,351.873,543.9,351.888Z" transform="translate(-479.333 -292.96)"/><path class="r" d="M552.938,352.666c-.36-.275-2.216-1.929-3.529-2.192a4.963,4.963,0,0,0-1.514.027v0l-.089,0h-.012l-.092,0v0a4.955,4.955,0,0,0-1.514-.027c-1.313.263-3.169,1.917-3.529,2.192a6.92,6.92,0,0,1-1.065.653s.415.769.711,1.334c.333.635,1.255,2.668,5.455,2.668s5.2-2.033,5.531-2.668c.3-.565.757-1.456.757-1.456A3.374,3.374,0,0,1,552.938,352.666Zm-7.491,1.245a5.219,5.219,0,0,0-1.795-.281c.6-.046,1.114-.1,1.114-.1a3.967,3.967,0,0,1,3.022-.742,3.793,3.793,0,0,1,3.043.742s.51.058,1.117.1a5.238,5.238,0,0,0-1.8.281A12.076,12.076,0,0,1,545.447,353.911Z" transform="translate(-481.78 -294.373)"/><path class="x" d="M554.517,371.654a7.014,7.014,0,0,1,1.969.189c.635-2.128,2.161-10.007-.549-15.55-.43-.876-1.136-1.728-2.146-1.636C555.905,358.457,556.549,365.789,554.517,371.654Z" transform="translate(-456.748 -285.689)"/><path class="t" d="M543.865,352.49a7.292,7.292,0,0,0,3.123,1.264,10.294,10.294,0,0,1-3.852-.778c-.4-.171-1-.479-.766-.931C542.656,351.47,543.492,352.2,543.865,352.49Z" transform="translate(-480.295 -291.477)"/><path class="t" d="M544.611,351.02a2.6,2.6,0,0,1,1.071.534,3.657,3.657,0,0,0-1.114-.843c-.14-.067-.363-.153-.43.015C544.055,350.937,544.446,350.989,544.611,351.02Z" transform="translate(-476.584 -293.942)"/></g></g><g transform="translate(134.777 133.305)"><g transform="translate(5.794)"><path class="a" d="M559.19,378.956c.449-.226,2.726-1.139,2.7-1.108a2.252,2.252,0,0,1,.778-1.371,1.276,1.276,0,0,1,1.374-.177c.177-.064.748-.7,1.1-.806a1.725,1.725,0,0,1,1.252.064c1.352-1.178,4.258-.6,5.428-2.222.165.888-1.926,2.094-2.647,2.427a24.116,24.116,0,0,1-2.839,1.163,32.451,32.451,0,0,0-3.355.815c-.528.238-.791.339-1.24.565a22.68,22.68,0,0,1-2.607,1.059S558.742,379.185,559.19,378.956Z" transform="translate(-558.976 -373.275)"/><path class="b" d="M569.911,373.316c.25,1.447-1,2.21-1.92,2.863a2.639,2.639,0,0,1-1.105.6c-.553.156-.718.153-.946.369a2.719,2.719,0,0,1-.965,1.1,2.829,2.829,0,0,1-.669.3,9.148,9.148,0,0,0-1.114.174c-.235.1-.4.464-.745.571a2.05,2.05,0,0,1-2.454-.647c-.021-.031-.095-.266-.058-.311,1.142-.852,4-1.187,4.9-1.5C570.253,374.974,569.911,373.316,569.911,373.316Z" transform="translate(-557.028 -373.316)"/></g><g transform="translate(0 0.476)"><path class="h" d="M560.092,381.378c-.217.665-.265,2.979.443,3.611.327.027,1.386-1.7,1.554-3.089.238.809,1.74,2.659,2.628,2.686.3-2.28-.879-3.175-1.621-4.1.916.26,2.231.876,3.532.342-.095-1.044-1.92-1.868-3.175-2.143,1.981-1.145,2.723-2.833,2.317-3.114-.372-.305-2.763.8-3.636,2.345.3-1.636.382-3.474-.693-4.445-1.047.638-.784,3.526-.552,4.472-.8-.65-3.2-1.493-3.691-.87-.122,1.065,1.584,2.235,2.888,2.216-1.807.659-3.12,2.158-3,2.692C558.1,382.428,559.091,381.842,560.092,381.378Z" transform="translate(-557.078 -373.472)"/><path class="c" d="M558.833,375.233c.882-.433,1.42.717.6,1.252C558.495,377.1,557.92,375.685,558.833,375.233Z" transform="translate(-554.418 -370.053)"/></g></g><g transform="translate(11.02 110.359)"><path class="a" d="M523.965,377.685c-.235-.443-1.575-2.5-1.566-2.457a2.247,2.247,0,0,0,.153-1.569,1.275,1.275,0,0,0-1.023-.934,8.908,8.908,0,0,0-.44-1.294,1.719,1.719,0,0,0-1.062-.665c-.427-1.743-3.138-2.937-3.159-4.942-.647.632.372,2.821.769,3.51a24.442,24.442,0,0,0,1.651,2.579,32.662,32.662,0,0,1,2.274,2.6c.3.5.455.733.69,1.175a23.528,23.528,0,0,0,1.523,2.366S524.2,378.128,523.965,377.685Z" transform="translate(-516.287 -365.75)"/><path class="b" d="M517.121,365.8c-1.038,1.041-.452,2.387-.073,3.449a2.611,2.611,0,0,0,.556,1.126c.363.446.5.537.562.845a2.737,2.737,0,0,0,.159,1.453,3,3,0,0,0,.372.629c.25.293.629.485.812.785.134.22.064.608.281.894a2.054,2.054,0,0,0,2.384.882c.034-.012.229-.165.226-.223-.446-1.352-2.592-3.273-3.15-4.042C515.891,366.959,517.121,365.8,517.121,365.8Z" transform="translate(-516.537 -365.799)"/><g transform="translate(2.95 7.854)"><path class="h" d="M523.129,376.385c-.2.669-1.5,2.589-2.439,2.7-.284-.168-.153-2.189.507-3.422-.662.525-2.952,1.175-3.694.684,1.065-2.033,2.546-2.088,3.681-2.421-.9-.314-2.329-.565-3.086-1.749.678-.8,2.647-.427,3.831.07-.962-2.076-.6-3.883-.1-3.877.479-.037,1.8,2.244,1.624,4.008.7-1.508,1.688-3.062,3.123-3.236.488,1.123-1.386,3.333-2.122,3.975,1.026-.073,3.477.617,3.523,1.41-.516.943-2.583.919-3.639.152,1.1,1.578,1.313,3.56.906,3.929C524.155,378.391,523.685,377.341,523.129,376.385Z" transform="translate(-517.503 -368.372)"/><path class="c" d="M520.349,370.278c-.473-.864-1.575-.229-1.215.678C519.552,372,520.834,371.17,520.349,370.278Z" transform="translate(-514.301 -365.299)"/></g></g><g transform="translate(62.095 0)"><g transform="translate(6.31 0.118)"><path class="a" d="M535.68,334.669c.485-.137,2.778-1.007,2.732-1.01a2.227,2.227,0,0,0,1.5.482,1.281,1.281,0,0,0,1.132-.8,8.9,8.9,0,0,0,1.356-.156,1.72,1.72,0,0,0,.879-.894c1.792-.049,3.538-2.445,5.5-2.039-.479-.766-2.836-.235-3.593.006a24.638,24.638,0,0,0-2.876,1.065,32.681,32.681,0,0,1-3.019,1.67c-.549.183-.812.287-1.3.424a23.289,23.289,0,0,0-2.634.986S535.2,334.807,535.68,334.669Z" transform="translate(-535.335 -329.335)"/><path class="b" d="M547.1,330.627c-.8-1.236-2.234-.949-3.355-.809a2.637,2.637,0,0,0-1.218.305c-.513.259-.632.372-.949.369a2.734,2.734,0,0,0-1.45-.153,2.864,2.864,0,0,0-.7.229c-.339.18-.6.513-.937.629-.241.083-.607-.07-.934.083a2.05,2.05,0,0,0-1.368,2.14c0,.037.11.259.168.269,1.416-.146,3.749-1.838,4.619-2.216C546.232,329.177,547.1,330.627,547.1,330.627Z" transform="translate(-533.588 -329.686)"/></g><path class="f" d="M535.89,335.139c-.611-.342-2.213-2.012-2.122-2.958.226-.241,2.173.315,3.239,1.221-.375-.757-.522-3.132.116-3.755,1.758,1.474,1.5,2.934,1.581,4.115.5-.809,1.047-2.155,2.366-2.644.638.833-.146,2.677-.882,3.727,2.231-.5,3.919.241,3.81.723-.064.476-2.573,1.282-4.261.736,1.325,1,2.631,2.3,2.5,3.739-1.2.238-2.964-2.064-3.434-2.919-.144,1.017-1.34,3.263-2.125,3.141-.812-.705-.348-2.72.623-3.587-1.773.736-3.758.522-4.029.049C533.711,335.716,534.837,335.478,535.89,335.139Z" transform="translate(-533.268 -329.647)"/><path class="s" d="M535.757,332.7c.947-.278.559-1.49-.4-1.331C534.24,331.552,534.78,332.983,535.757,332.7Z" transform="translate(-530.26 -326.149)"/></g><g transform="translate(39.169 69.337)"><path class="n" d="M530.7,355.246a1.522,1.522,0,1,1-1.126-1.835A1.522,1.522,0,0,1,530.7,355.246Z" transform="translate(-521.769 -350.291)"/><path class="n" d="M533.026,354.681a1.882,1.882,0,1,1-1.392-2.268A1.879,1.879,0,0,1,533.026,354.681Z" transform="translate(-518.458 -352.361)"/><path class="n" d="M528.607,355.74a1.065,1.065,0,1,1-.788-1.282A1.064,1.064,0,0,1,528.607,355.74Z" transform="translate(-524.224 -348.118)"/><path class="n" d="M527.333,356.635a.8.8,0,1,1-.589-.965A.8.8,0,0,1,527.333,356.635Z" transform="translate(-525.758 -345.612)"/></g><g transform="translate(46.716 140.718)"><path class="q" d="M531.775,377.382a1.88,1.88,0,1,1-1.435,2.238A1.88,1.88,0,0,1,531.775,377.382Z" transform="translate(-523.989 -372.474)"/><path class="q" d="M530.058,375.8a2.327,2.327,0,1,1-1.774,2.769A2.328,2.328,0,0,1,530.058,375.8Z" transform="translate(-528.23 -375.744)"/><path class="q" d="M533.251,378.562a1.315,1.315,0,1,1-1,1.566A1.312,1.312,0,0,1,533.251,378.562Z" transform="translate(-520.049 -370.024)"/><path class="q" d="M534.811,378.981a.987.987,0,1,1-.754,1.175A.987.987,0,0,1,534.811,378.981Z" transform="translate(-516.318 -369.146)"/></g><g transform="translate(11.899 41.405)"><path class="r" d="M521.292,346.724a1.882,1.882,0,1,1-2.338-1.27A1.882,1.882,0,0,1,521.292,346.724Z" transform="translate(-515.219 -338.764)"/><path class="r" d="M523.321,344.875a2.326,2.326,0,1,1-2.891-1.569A2.327,2.327,0,0,1,523.321,344.875Z" transform="translate(-512.84 -343.211)"/><path class="r" d="M519.492,348.306a1.317,1.317,0,1,1-1.636-.888A1.318,1.318,0,0,1,519.492,348.306Z" transform="translate(-516.645 -334.685)"/><path class="r" d="M518.758,349.907a.987.987,0,1,1-1.227-.665A.985.985,0,0,1,518.758,349.907Z" transform="translate(-516.824 -330.916)"/></g><g transform="translate(125.504 55.513)"><path class="r" d="M555.116,351.666a1.291,1.291,0,1,1,1.581.913A1.292,1.292,0,0,1,555.116,351.666Z" transform="translate(-551.923 -343.306)"/><path class="r" d="M554.095,353.317a1.6,1.6,0,1,1,1.96,1.126A1.6,1.6,0,0,1,554.095,353.317Z" transform="translate(-554.04 -340.71)"/><path class="r" d="M555.865,350.081a.9.9,0,1,1,1.108.638A.906.906,0,0,1,555.865,350.081Z" transform="translate(-550.358 -345.555)"/><path class="r" d="M556.1,348.686a.678.678,0,1,1,.83.479A.677.677,0,0,1,556.1,348.686Z" transform="translate(-549.868 -347.832)"/></g><path class="q" d="M558.026,347.019a17.743,17.743,0,0,1,5.876,3.221,30.371,30.371,0,0,1,5.6-3.868,16.873,16.873,0,0,0-5.58,2.186A8.586,8.586,0,0,0,558.026,347.019Z" transform="translate(-420.354 -295.317)"/><path class="q" d="M558.008,344.406a11.854,11.854,0,0,1,3.935,2.158,20.21,20.21,0,0,1,3.752-2.592,11.377,11.377,0,0,0-3.736,1.462A5.745,5.745,0,0,0,558.008,344.406Z" transform="translate(-420.391 -300.243)"/><g transform="translate(18.375 51.558)"><path class="p" d="M520.017,363.162a13.594,13.594,0,0,0,6.99-9.451c1.572-7.091,6.5-6.316,6.5-6.316s-5.913-3.224-7.348,2.973c0,0-5.351.049-5.293,7.424C520.9,362.766,520.017,363.162,520.017,363.162Z" transform="translate(-516.748 -346.495)"/><path class="p" d="M520.191,360.219a9.556,9.556,0,0,0,2.366-7.916c-.653-5.061,2.787-5.724,2.787-5.724s-4.68-.72-4.149,3.718c0,0-3.553,1.319-1.728,6.169C520.7,359.743,520.191,360.219,520.191,360.219Z" transform="translate(-518.946 -346.537)"/></g><g transform="translate(142.184 35.263)"><path class="r" d="M575.274,356.492a13.581,13.581,0,0,1-8.37-8.251c-2.656-6.762-7.4-5.232-7.4-5.232s5.345-4.1,7.72,1.8c0,0,5.724-.836,6.383,6.511C574.007,355.784,575.274,356.492,575.274,356.492Z" transform="translate(-559.504 -340.334)"/><path class="r" d="M570.02,354.1a9.552,9.552,0,0,1-3.566-7.455c-.143-5.1-3.642-5.223-3.642-5.223s4.509-1.438,4.673,3.028c0,0,3.929.8,2.665,5.831C569.291,353.7,570.02,354.1,570.02,354.1Z" transform="translate(-552.712 -341.199)"/></g><ellipse class="q" cx="1.832" cy="1.832" rx="1.832" ry="1.832" transform="translate(27.689 67.522)"/></svg>