<svg xmlns="http://www.w3.org/2000/svg" width="230" height="34" viewBox="0 0 230 34"><defs><style>.a,.c,.d,.f{fill:none;}.a{stroke:#02abe9;}.a,.d{stroke-width:2px;}.b{fill:#fff;font-size:17px;font-family:FuturaPT-Light, Futura PT;font-weight:300;}.c,.d{stroke:#fff;stroke-linecap:round;stroke-linejoin:round;}.c{stroke-width:1.5px;}.e{stroke:none;}</style></defs><g transform="translate(-383.5 -405.275)"><g class="a" transform="translate(383.5 405.275)"><rect class="e" width="230" height="34" rx="10"/><rect class="f" x="1" y="1" width="228" height="32" rx="9"/></g><text class="b" transform="translate(419.5 428.275)"><tspan x="0" y="0">GUARDA / COMPARTE</tspan></text><g transform="translate(587.495 412.531)"><g transform="translate(0 0)"><line class="c" y2="10.437" transform="translate(5.94)"/><path class="c" d="M7.89,5.807,11.69,2l3.834,3.894" transform="translate(-5.75 -2)"/><path class="c" d="M9.961,24.82h3.452V36.733H1.5V24.82H5.16" transform="translate(-1.5 -17.179)"/></g></g><g transform="translate(393.57 412.531)"><g transform="translate(3.643 0)"><line class="d" y1="14.069" transform="translate(5.892)"/><path class="d" d="M103.624,772.425l-5.839,5.848-5.892-5.986" transform="translate(-91.893 -764.205)"/></g><path class="d" d="M81.66,792.045s-.407,4.273,3.259,4.446H97.686a4.426,4.426,0,0,0,3.016-4.446" transform="translate(-81.646 -776.938)"/></g></g></svg>