<svg xmlns="http://www.w3.org/2000/svg" width="45" height="39.375" viewBox="0 0 45 39.375"><defs><style>.a{fill:#fff;}</style></defs><g transform="translate(0.007 0.002)"><g transform="translate(-0.007 -0.002)"><path class="a" d="M44.4,5.195a3.864,3.864,0,0,0-3.312-2.084H14.182a1.181,1.181,0,0,0-.962.411A1.5,1.5,0,0,0,12.859,4.6a1.489,1.489,0,0,0,.378,1.046,1.179,1.179,0,0,0,.945.394H41.091a1.256,1.256,0,0,1,1.062.594,1.378,1.378,0,0,1,.144,1.42l-5.31,13.088a1.35,1.35,0,0,1-1.188.735H15.226L9.143,1.007A1.6,1.6,0,0,0,7.82,0h-6.5A1.181,1.181,0,0,0,.363.407,1.5,1.5,0,0,0,0,1.48,1.5,1.5,0,0,0,.342,2.593a1.183,1.183,0,0,0,.981.427h5.4l7.29,24.756a5.515,5.515,0,0,0,5.337,4.44H38.175a1.29,1.29,0,0,0,1-.423,1.622,1.622,0,0,0,.423-1.1,1.5,1.5,0,0,0-.345-1.07,1.187,1.187,0,0,0-.942-.43H19.483A3.19,3.19,0,0,1,16.7,26.82l-.612-2.074h19.7a4.075,4.075,0,0,0,3.6-2.376l5.3-13.088A5.038,5.038,0,0,0,44.4,5.195Z" transform="translate(0.007 0.002)"/><path class="a" d="M18.727,32.55a3.4,3.4,0,1,0,2.409,1,3.41,3.41,0,0,0-2.409-1Zm0,5.116a.671.671,0,1,1,0,.03Z" transform="translate(-0.239 0.004)"/><path class="a" d="M38.807,32.55a3.4,3.4,0,1,0,2.409,1A3.41,3.41,0,0,0,38.807,32.55Zm0,5.146a1.608,1.608,0,1,1,1.134-.492A1.62,1.62,0,0,1,38.807,37.7Z" transform="translate(0.715 0.004)"/></g></g></svg>