<svg xmlns="http://www.w3.org/2000/svg" width="26.337" height="20.906" viewBox="0 0 26.337 20.906"><defs><style>.a,.b{fill:none;stroke:#02abe9;stroke-width:1.2px;}.a{stroke-linecap:round;stroke-linejoin:round;}.b{stroke-miterlimit:10;}</style></defs><g transform="translate(-0.896 -0.392)"><g transform="translate(1.499 1.014)"><path class="a" d="M32.189,23.27,31.05,28.645l5.826-.758Z" transform="translate(-20.125 -15.042)"/><path class="a" d="M15.769,11.006H4.96A3,3,0,0,0,1.5,13.442V23.871s-.089,2.935,2.7,3.109h16.34s2.588-.259,2.588-3.8V17.856" transform="translate(-1.499 -7.295)"/><path class="a" d="M36.32,12.671l5.512-5.3,4.421,4.2-5.46,5.442Z" transform="translate(-23.447 -5.02)"/><path class="a" d="M52.63,2.772l4.436,4.192S59.976,4.3,58.094,2.118C55.695-.7,52.63,2.772,52.63,2.772Z" transform="translate(-33.728 -1.014)"/><path class="b" d="M31.809,28.64a2.534,2.534,0,0,0,3,2.78c.237,0-3.7.61-3.7.61Z" transform="translate(-20.163 -18.427)"/></g></g></svg>