<svg xmlns="http://www.w3.org/2000/svg" width="47.836" height="38.279" viewBox="0 0 47.836 38.279"><defs><style>.a,.b{fill:none;stroke:#fff;stroke-width:2.8px;}.a{stroke-linecap:round;stroke-linejoin:round;}.b{stroke-miterlimit:10;}</style></defs><g transform="translate(-0.097 0.433)"><g transform="translate(1.499 1.014)"><path class="a" d="M33.1,23.27l-2.05,9.675,10.487-1.364Z" transform="translate(-11.386 -8.46)"/><path class="a" d="M27.186,11.026H7.728S2.5,10.208,1.5,15.412V34.184s-.16,5.284,4.858,5.6H35.77s4.658-.466,4.658-6.841V23.357" transform="translate(-1.499 -4.348)"/><path class="a" d="M36.32,16.912,46.242,7.37,54.2,14.929l-9.829,9.8Z" transform="translate(-13.149 -3.14)"/><path class="a" d="M52.63,4.179l7.985,7.546S65.852,6.934,62.465,3C58.146-2.076,52.63,4.179,52.63,4.179Z" transform="translate(-18.606 -1.014)"/><path class="b" d="M32.368,28.64s-.439,5.477,5.4,5c.426,0-6.654,1.1-6.654,1.1Z" transform="translate(-11.406 -10.257)"/></g></g></svg>