<svg xmlns="http://www.w3.org/2000/svg" width="502.787" height="161.085" viewBox="0 0 502.787 161.085"><defs><style>.a{fill:#363636;font-size:44px;font-family:FuturaPTCond-Bold, Futura PT Cond;font-weight:700;letter-spacing:0.01em;}.b,.c{fill:#009fe3;}.c{font-size:28px;font-family:Futura-Light, Futura;font-weight:300;letter-spacing:0.146em;}.d{fill:#fff;stroke:#009fe3;stroke-miterlimit:10;stroke-width:0.5px;}</style></defs><g transform="translate(-397 -2487)"><text class="a" transform="translate(558 2604)"><tspan x="0" y="0">EMPRESA MEXICANA</tspan></text><g transform="translate(397 2487)"><g transform="translate(485.035 65.914)"><path class="b" d="M602.922,80.807a8.915,8.915,0,1,1-.044,0Zm-.044,1.392a7.609,7.609,0,0,0,.044,15.2,7.611,7.611,0,0,0,0-15.2ZM601.2,95.007h-1.6V84.992a17.863,17.863,0,0,1,2.832-.24,5.269,5.269,0,0,1,3.114.76,2.4,2.4,0,0,1,.915,2.074,2.494,2.494,0,0,1-1.952,2.434V90.1c.876.161,1.477.957,1.675,2.436a8.275,8.275,0,0,0,.638,2.473h-1.673a7.28,7.28,0,0,1-.683-2.554,1.87,1.87,0,0,0-2.152-1.754H601.2Zm0-5.542h1.159c1.318,0,2.431-.484,2.431-1.719,0-.88-.64-1.753-2.431-1.753a8.382,8.382,0,0,0-1.159.074Z" transform="translate(-593.985 -80.807)"/></g><path class="b" d="M345.995,48.089v55.461l12.8,18.076h3.143V56.008c3.678-2.3,9.568-2.6,14.922-.56L379.981,42.6C362.213,42.033,353.3,44.186,345.995,48.089Z" transform="translate(-280.478 -41.382)"/><path class="b" d="M565.3,121.619V42.52h16.477v69.326h24.482v9.773Z" transform="translate(-128.792 -41.375)"/><path class="b" d="M514.9,123.216c-10.566,0-17.137-1.7-21.906-4.474l4-10.219a29.172,29.172,0,0,0,14.78,3.674c8.792,0,14.19-4.82,14.19-12.182,0-5.987-3.852-9.668-13.789-13.329-14.416-5.43-18.29-13.917-18.29-21.638,0-12.525,10.208-23.2,26.549-23.2,8.875,0,15.46,1.929,19.458,4.486l-3.615,8.947a28.671,28.671,0,0,0-13.654-3.564c-8.1,0-12.762,4.474-12.762,11.505,0,6.9,5.679,10.115,13.406,13.006,17.407,6.538,19.972,15.267,19.972,22.87C543.246,113.111,531.374,123.216,514.9,123.216Z" transform="translate(-178.801 -41.843)"/><path class="b" d="M486.669,123.216c-20.024,0-29.973-8.721-29.973-23.841,0-20.7,18.654-26.662,41.037-28.994V66.154c0-10.2-6.022-12.972-14.613-12.972A41.724,41.724,0,0,0,464.725,58L460.917,47.8a55.461,55.461,0,0,1,25.2-5.96c15.127,0,27.138,6.843,27.138,27.077v48.636C507.373,120.908,498.127,123.216,486.669,123.216Zm11.064-44.391c-15.7,2.018-25.382,5.664-25.382,19.933,0,10.211,5.731,14.584,15.418,14.584a22.5,22.5,0,0,0,9.964-2.186Z" transform="translate(-203.909 -41.843)"/><path class="b" d="M376.52,157.144,323.877,81.608h-.249v40.011H307.266V42.52h16.362V78.6h.249L349.262,42.52h16.749L338.3,79.087l55.328,78.057Z" transform="translate(-307.266 -41.375)"/><path class="b" d="M475.791,121.619c-.156-1.956-5.66-52.31-5.66-52.31a87.926,87.926,0,0,1-.408-9.556h-.237a96.075,96.075,0,0,1-2.575,9.556s-15.87,49.294-16.89,51.941h-9.289c-.892-2.313-16.722-52.068-16.722-52.068-1.544-4.938-2.575-9.429-2.575-9.429h-.25a83.056,83.056,0,0,1-.4,9.429s-5.539,50.133-5.67,52.437H401.342l9.92-79.1h16.5L443.58,92.862c1.561,5.036,2.306,8.829,2.306,8.829h.286a67.571,67.571,0,0,1,2.311-8.829L464.83,42.52h16.492l9.906,79.1Z" transform="translate(-242.196 -41.375)"/><path class="b" d="M555.357,123.216c-19.933,0-29.587-17.467-29.587-40.62,0-23.433,9.654-40.752,29.587-40.752,20.119,0,29.611,17.319,29.611,40.752C584.968,105.749,575.316,123.216,555.357,123.216Zm0-70.165c-11.346,0-13.618,14.408-13.618,29.389,0,14.882,2.521,28.716,13.618,28.716,11.529,0,13.626-13.835,13.626-28.716C568.984,67.458,566.886,53.05,555.357,53.05Z" transform="translate(-156.133 -41.843)"/><path class="b" d="M394.289,123.216c-19.957,0-29.616-17.467-29.616-40.62,0-23.433,9.659-40.752,29.616-40.752,20.092,0,29.616,17.319,29.616,40.752C423.905,105.749,414.229,123.216,394.289,123.216Zm0-70.165c-11.358,0-13.611,14.408-13.611,29.389,0,14.882,2.492,28.716,13.611,28.716,11.5,0,13.611-13.835,13.611-28.716C407.9,67.458,405.791,53.05,394.289,53.05Z" transform="translate(-267.559 -41.843)"/></g><text class="c" transform="translate(629.2 2640.085)"><tspan x="0" y="0">DESDE EL 2010</tspan></text><line class="d" x2="471.234" y2="0.686" transform="translate(397.266 2610.814)"/></g></svg>