<svg xmlns="http://www.w3.org/2000/svg" width="212" height="48.811" viewBox="0 0 212 48.811"><defs><style>.a{fill:#fff;}</style></defs><g transform="translate(0 0.03)"><g transform="translate(0 -0.03)"><path class="a" d="M289,38.749A3.791,3.791,0,1,1,285.24,42.5,3.734,3.734,0,0,1,289,38.72Zm0,.588a3.211,3.211,0,1,0,3,3.2A3.211,3.211,0,0,0,289,39.336Zm-.717,5.4h-.667V40.512a7.532,7.532,0,0,1,1.19-.1,2.2,2.2,0,0,1,1.312.322,1.018,1.018,0,0,1,.387.874,1.046,1.046,0,0,1-.824,1.025h0c.373.064.623.4.717,1.025a3.584,3.584,0,0,0,.265,1.039h-.717a2.974,2.974,0,0,1-.287-1.075.788.788,0,0,0-.91-.717h-.473Zm0-2.336h.494c.552,0,1.025-.2,1.025-.717,0-.365-.272-.717-1.025-.717a3.72,3.72,0,0,0-.494,0Z" transform="translate(-80.822 -10.95)"/><path class="a" d="M38.53,3.012V26.389l5.389,7.618h1.326V6.352a7.469,7.469,0,0,1,6.292-.236L52.856.7C45.367.461,41.6,1.371,38.53,3.012Z" transform="translate(-10.917 -0.167)"/><path class="a" d="M256.7,34.009V.67h6.944V29.888h10.32v4.121Z" transform="translate(-72.735 -0.168)"/><path class="a" d="M194,34.295c-4.45,0-7.217-.717-9.23-1.885l1.691-4.3a12.248,12.248,0,0,0,6.228,1.548c3.705,0,5.977-2.028,5.977-5.131,0-2.523-1.62-4.078-5.812-5.619-6.07-2.286-7.7-5.862-7.7-9.116,0-5.282,4.3-9.782,11.187-9.782a15.472,15.472,0,0,1,8.2,1.892l-1.519,3.762a12.09,12.09,0,0,0-5.733-1.5c-3.418,0-5.382,1.885-5.382,4.852s2.394,4.264,5.654,5.482c7.331,2.752,8.413,6.45,8.413,9.639C205.947,30.038,200.945,34.295,194,34.295Z" transform="translate(-52.354 0.019)"/><path class="a" d="M161.295,34.292c-8.442,0-12.635-3.669-12.635-10.033,0-8.722,7.883-11.237,17.293-12.183V10.248c0-4.3-2.537-5.468-6.156-5.468a17.58,17.58,0,0,0-7.754,2.028l-1.605-4.3A23.463,23.463,0,0,1,161.087,0c6.378,0,11.466,2.867,11.466,11.409v20.5A23.826,23.826,0,0,1,161.295,34.292Zm4.658-18.7c-6.615.846-10.7,2.386-10.7,8.4,0,4.3,2.422,6.149,6.5,6.149a9.445,9.445,0,0,0,4.2-.924Z" transform="translate(-42.122 0.022)"/><path class="a" d="M29.189,48.98,6.973,17.146H6.894V34.009H0V.67H6.894V15.877H7L17.7.67H24.76L13.079,16.085,36.4,48.98Z" transform="translate(0 -0.168)"/><path class="a" d="M124.954,34.009c-.064-.853-2.415-22.044-2.415-22.044a38.76,38.76,0,0,1-.172-4.028h-.1a39.126,39.126,0,0,1-1.082,4.028s-6.686,20.783-7.116,21.887h-3.913c-.38-.975-7.052-21.944-7.052-21.944-.652-2.078-1.082-3.97-1.082-3.97h-.108a33.731,33.731,0,0,1-.172,3.97s-2.329,21.134-2.386,22.1h-5.8L97.757.67h6.959l6.665,21.22c.659,2.15.975,3.719.975,3.719h.15a28.244,28.244,0,0,1,.975-3.719L120.338.67h6.944l4.178,33.339Z" transform="translate(-26.507 -0.168)"/><path class="a" d="M229.85,34.283c-8.406,0-12.47-7.36-12.47-17.114,0-9.875,4.063-17.2,12.47-17.2s12.477,7.3,12.477,17.2C242.327,26.923,238.256,34.283,229.85,34.283Zm0-29.569c-4.787,0-5.733,6.07-5.733,12.384s1.061,12.1,5.733,12.1c4.859,0,5.733-5.826,5.733-12.1S234.709,4.714,229.85,4.714Z" transform="translate(-61.594 0.03)"/><path class="a" d="M69.594,34.292c-8.414,0-12.484-7.36-12.484-17.092C57.11,7.324,61.181,0,69.594,0S82.071,7.3,82.071,17.2C82.071,26.932,77.993,34.292,69.594,34.292Zm0-29.569c-4.787,0-5.733,6.07-5.733,12.384s1.053,12.1,5.733,12.1c4.845,0,5.733-5.826,5.733-12.1S74.439,4.723,69.594,4.723Z" transform="translate(-16.182 0.022)"/></g></g></svg>