<svg xmlns="http://www.w3.org/2000/svg" width="56.021" height="55" viewBox="0 0 56.021 55"><defs><style>.a{fill:#fff;}</style></defs><g transform="translate(0 0.004)"><g transform="translate(0 -0.004)"><path class="a" d="M0,27.5A27.316,27.316,0,0,1,7.336,9.016,27.573,27.573,0,0,1,21.239.878,27.271,27.271,0,0,1,39.148,2.3c8.769,3.85,14.391,10.48,16.3,19.962a26.075,26.075,0,0,1-5.037,21.627A27.131,27.131,0,0,1,35.6,53.91a27.738,27.738,0,0,1-21.42-2.552A26.714,26.714,0,0,1,3.13,40.011,28.136,28.136,0,0,1,0,27.5Zm54-.356A24.819,24.819,0,0,0,43.775,7.284,25.135,25.135,0,0,0,26.126,2.136,25.284,25.284,0,0,0,6.52,13.247,23.948,23.948,0,0,0,2.331,31.01,24.711,24.711,0,0,0,15.289,49.693a25.4,25.4,0,0,0,16.016,3.062A25.672,25.672,0,0,0,54,27.136Z" transform="translate(0 0.004)"/><path class="a" d="M64.8,62.887H58.3c-.057-5.326,0-10.612-.039-15.995h-5.29a30.541,30.541,0,0,1-.1-6.3h5.347c.021-.4.053-.692.057-.991,0-1.369-.05-2.738.018-4.1a10.858,10.858,0,0,1,.41-2.606,6.929,6.929,0,0,1,5.622-5.019,18.289,18.289,0,0,1,4.773-.125c.713.039,1.4.111,2.139.171v5.536l-1.28.064c-.995.036-2,0-2.984.114a2.066,2.066,0,0,0-2.1,2.082c-.1,1.554-.021,3.123-.021,4.777,2.057.146,4.1-.032,6.213.1-.274,2.107-.535,4.128-.809,6.242H64.8Z" transform="translate(-33.947 -17.796)"/></g></g></svg>