<svg xmlns="http://www.w3.org/2000/svg" width="55" height="55" viewBox="0 0 55 55"><defs><style>.a{fill:#fff;}</style></defs><g transform="translate(0.005 -0.01)"><g transform="translate(-0.005 0.01)"><path class="a" d="M0,25.829A26.519,26.519,0,0,1,6.426,9.792,27.15,27.15,0,0,1,24.036.231a26.671,26.671,0,0,1,9.616.507A26.941,26.941,0,0,1,47.913,9.115,27.507,27.507,0,0,1,53.07,37.656,26.53,26.53,0,0,1,44.52,49.1a26.605,26.605,0,0,1-8.919,4.67,26.951,26.951,0,0,1-21.708-2.437A26.536,26.536,0,0,1,1.623,36.685,29.388,29.388,0,0,1,0,25.829Zm1.977.161c-.021,9.479,3.779,17.125,10.237,21.891A24.938,24.938,0,0,0,29.7,52.876a24.913,24.913,0,0,0,17.21-8.791A24.177,24.177,0,0,0,52.846,30.46c.852-8.405-1.714-15.658-7.8-21.388C38.465,2.878,30.609.809,21.834,2.629A24.257,24.257,0,0,0,9.732,9.15,24.35,24.35,0,0,0,1.977,25.99Z" transform="translate(0.005 -0.01)"/><path class="a" d="M71.993,79.378h-6.4c-.168-.66-.245-19.622-.081-20.921,2.009-.107,4.039-.043,6.191-.032v2.6l.161.029c.105-.125.217-.243.316-.357A6.932,6.932,0,0,1,77.3,57.911a9.047,9.047,0,0,1,4.452.66,5.742,5.742,0,0,1,3.025,2.947,11.952,11.952,0,0,1,1.02,5.073c.035,4.024.028,8.049.032,12.073,0,.221-.042.442-.067.714H79.355c-.025-.389-.063-.774-.067-1.159,0-3.453,0-6.907-.049-10.346a8.257,8.257,0,0,0-.379-2.262,2.587,2.587,0,0,0-2.121-1.852,4.7,4.7,0,0,0-2.331.121,2.879,2.879,0,0,0-2.051,2.187,12.216,12.216,0,0,0-.351,2.619c-.042,3.25,0,6.5,0,9.758Z" transform="translate(-42.483 -37.222)"/><path class="a" d="M41.576,80.323h-6.31c-.2-.614-.3-19.394-.1-20.924,2.1-.093,4.207-.032,6.31-.018C41.67,60.1,41.761,78.593,41.576,80.323Z" transform="translate(-22.766 -38.178)"/><path class="a" d="M37.435,30.16a3.815,3.815,0,0,1,3.793,3.775,3.864,3.864,0,0,1-3.839,3.832,3.8,3.8,0,0,1,.046-7.606Z" transform="translate(-21.867 -19.403)"/></g></g></svg>