<svg xmlns="http://www.w3.org/2000/svg" width="55.994" height="55" viewBox="0 0 55.994 55"><defs><style>.a{fill:#fff;}</style></defs><g transform="translate(-0.003)"><g transform="translate(0.003 0)"><path class="a" d="M55.993,28.2a27.182,27.182,0,0,1-8.741,19.2,27.74,27.74,0,0,1-18.673,7.593,27.5,27.5,0,0,1-14.048-3.406A27.379,27.379,0,0,1,3.19,40.274,26.163,26.163,0,0,1,.059,29.34,26.6,26.6,0,0,1,7.584,8.673,27.439,27.439,0,0,1,23.023.471a27.7,27.7,0,0,1,18.616,3.06A26.929,26.929,0,0,1,53.782,16.876,27.593,27.593,0,0,1,55.993,28.2ZM1.96,27.956a34.98,34.98,0,0,0,.382,3.588c1.894,9.85,7.621,16.512,16.994,19.971a25.341,25.341,0,0,0,14.979.713,25.089,25.089,0,0,0,13.552-8.31,24.464,24.464,0,0,0,5.6-21.159,24.513,24.513,0,0,0-10.3-15.888A25.581,25.581,0,0,0,25.7,2.14,25.4,25.4,0,0,0,9.5,9.568C4.556,14.465,2.117,20.439,1.96,27.956Z" transform="translate(-0.003 0)"/><path class="a" d="M36.111,49.615a7.133,7.133,0,0,1-2.853-5.521,6.391,6.391,0,0,1,.959-3.655,20.79,20.79,0,0,0,14.715,7.279c-.021-.357-.029-.6-.053-.842a7.186,7.186,0,0,1,11.951-5.956.959.959,0,0,0,1.07.239l3.21-1.184c.153-.057.3-.132.621-.275a6.113,6.113,0,0,1-1.091,2.033,15.44,15.44,0,0,0-1.427,1.737l3.331-.874a9.293,9.293,0,0,1-1.858,2.225c-.453.467-1.141.8-1.391,1.345a6.056,6.056,0,0,0-.107,1.94,19.836,19.836,0,0,1-3.1,9.5c-4.19,6.541-10.26,9.572-17.967,9.422a20.135,20.135,0,0,1-9.9-2.9c-.032-.021-.039-.086-.1-.221a14.823,14.823,0,0,0,10.128-2.853c-.681-.157-1.227-.243-1.744-.414a8.559,8.559,0,0,1-1.566-.67,6.515,6.515,0,0,1-1.305-.942,7.821,7.821,0,0,1-1.07-1.312c-.307-.464-.524-.984-.87-1.641h2.689l.093-.182c-3.21-1.188-5.053-3.356-5.26-6.833l2.767.767Z" transform="translate(-20.666 -25.15)"/></g></g></svg>