<svg xmlns="http://www.w3.org/2000/svg" width="55.776" height="55" viewBox="0 0 55.776 55"><defs><style>.a{fill:#fff;}</style></defs><g transform="translate(0 0.03)"><g transform="translate(0 -0.03)"><path class="a" d="M0,27.419A27.624,27.624,0,0,1,22.9.471a27.02,27.02,0,0,1,18.818,3.2A26.655,26.655,0,0,1,55.215,22.207a26.326,26.326,0,0,1-3.994,20.238,26.629,26.629,0,0,1-11.23,9.768,27.63,27.63,0,0,1-18.108,2.074,27.51,27.51,0,0,1-11.518-5.436,26.86,26.86,0,0,1-9.3-14.117A27.662,27.662,0,0,1,0,27.419ZM28.525,53a22.723,22.723,0,0,0,5.244-.65A25.245,25.245,0,0,0,50.415,40.077,24.5,24.5,0,0,0,52.19,18.66,24.627,24.627,0,0,0,42.667,6.538,25.543,25.543,0,0,0,24.2,2.21,24.9,24.9,0,0,0,7.811,11.374,24.5,24.5,0,0,0,2.737,33.356,24.62,24.62,0,0,0,13.471,48.673,25.969,25.969,0,0,0,28.525,53Z" transform="translate(0 0.03)"/><path class="a" d="M33.06,64.211c.078-.355.124-.628.2-.891.586-2.13,1.168-4.261,1.775-6.391a2.02,2.02,0,0,0-.149-1.612A15.9,15.9,0,0,1,47.355,32.256,15.6,15.6,0,0,1,61.71,37.887a14.8,14.8,0,0,1,2.958,15c-2.13,6.338-6.714,9.963-13.279,11.007A15.307,15.307,0,0,1,42.2,62.4a1.953,1.953,0,0,0-1.459-.128c-2.219.6-4.449,1.165-6.675,1.74C33.767,64.083,33.465,64.129,33.06,64.211Zm3.806-3.721c.476-.1.778-.16,1.065-.234,1.044-.266,2.095-.522,3.128-.82a1.924,1.924,0,0,1,1.6.2A13.471,13.471,0,0,0,62.654,46.323,12.5,12.5,0,0,0,59.9,39.9a13.114,13.114,0,0,0-11.628-5.042,12.805,12.805,0,0,0-11.33,7.921,12.6,12.6,0,0,0,.689,11.859,2.315,2.315,0,0,1,.252,2.13c-.2.529-.323,1.086-.472,1.633C37.239,59.038,37.079,59.666,36.866,60.49Z" transform="translate(-21.322 -20.713)"/><path class="a" d="M55.4,60.024a4.91,4.91,0,0,1,1.42-3.252,2.154,2.154,0,0,1,2.2-.522,1.161,1.161,0,0,1,.618.639c.444.952.82,1.932,1.243,2.89a1.033,1.033,0,0,1-.117,1.065,11.614,11.614,0,0,1-.742.927c-.44.515-.472.646-.128,1.2a10.961,10.961,0,0,0,5.354,4.491.8.8,0,0,0,1.044-.273c.355-.444.746-.856,1.086-1.31a.689.689,0,0,1,.952-.266q1.576.739,3.149,1.495a.668.668,0,0,1,.408.71,2.97,2.97,0,0,1-1.122,2.457,4.836,4.836,0,0,1-4.513.71,16.344,16.344,0,0,1-9.011-6.746,13.07,13.07,0,0,1-1.275-2.187A12.849,12.849,0,0,1,55.4,60.024Z" transform="translate(-35.73 -36.206)"/></g></g></svg>